<mxfile host="app.diagrams.net" modified="2022-08-16T09:46:33.560Z" agent="5.0 (Windows NT 10.0; Win64; x64) AppleWebKit/537.36 (KHTML, like Gecko) Chrome/104.0.0.0 Safari/537.36" etag="QMNnLlIZRIPnfBjDgoNo" version="20.2.3" type="github">
  <diagram id="jkE2bVl6K5JGCRgV4zIr" name="Page-1">
    <mxGraphModel dx="1951" dy="1211" grid="0" gridSize="10" guides="1" tooltips="1" connect="1" arrows="1" fold="1" page="0" pageScale="1" pageWidth="827" pageHeight="1169" math="0" shadow="0">
      <root>
        <mxCell id="0" />
        <mxCell id="1" parent="0" />
        <mxCell id="2-FnbDXYWDibML0f8TJd-9" style="edgeStyle=orthogonalEdgeStyle;rounded=0;orthogonalLoop=1;jettySize=auto;html=1;" edge="1" parent="1" source="2-FnbDXYWDibML0f8TJd-1">
          <mxGeometry relative="1" as="geometry">
            <mxPoint x="280" y="227" as="targetPoint" />
          </mxGeometry>
        </mxCell>
        <mxCell id="2-FnbDXYWDibML0f8TJd-1" value="&lt;font style=&quot;font-size: 14px;&quot;&gt;Admin Layout&lt;/font&gt;" style="ellipse;whiteSpace=wrap;html=1;aspect=fixed;strokeColor=#b85450;fillColor=#f8cecc;" vertex="1" parent="1">
          <mxGeometry x="240" y="120" width="80" height="80" as="geometry" />
        </mxCell>
        <mxCell id="2-FnbDXYWDibML0f8TJd-241" style="edgeStyle=orthogonalEdgeStyle;rounded=0;orthogonalLoop=1;jettySize=auto;html=1;strokeWidth=1;" edge="1" parent="1" source="2-FnbDXYWDibML0f8TJd-2">
          <mxGeometry relative="1" as="geometry">
            <mxPoint x="939" y="233.51171875" as="targetPoint" />
          </mxGeometry>
        </mxCell>
        <mxCell id="2-FnbDXYWDibML0f8TJd-2" value="&lt;font style=&quot;font-size: 14px;&quot;&gt;Main&lt;br&gt;&amp;nbsp;Layout&lt;/font&gt;" style="ellipse;whiteSpace=wrap;html=1;aspect=fixed;fillColor=#f8cecc;strokeColor=#b85450;" vertex="1" parent="1">
          <mxGeometry x="899" y="132" width="80" height="80" as="geometry" />
        </mxCell>
        <mxCell id="2-FnbDXYWDibML0f8TJd-3" value="&lt;b&gt;&lt;font style=&quot;font-size: 16px;&quot;&gt;The Little Prince Site Diagram&lt;/font&gt;&lt;/b&gt;" style="rounded=0;whiteSpace=wrap;html=1;fillColor=#e1d5e7;strokeColor=#9673a6;" vertex="1" parent="1">
          <mxGeometry x="546" y="-62" width="130" height="99" as="geometry" />
        </mxCell>
        <mxCell id="2-FnbDXYWDibML0f8TJd-7" value="" style="endArrow=none;html=1;rounded=0;" edge="1" parent="1">
          <mxGeometry width="50" height="50" relative="1" as="geometry">
            <mxPoint x="22" y="225" as="sourcePoint" />
            <mxPoint x="351" y="225" as="targetPoint" />
          </mxGeometry>
        </mxCell>
        <mxCell id="2-FnbDXYWDibML0f8TJd-10" value="" style="endArrow=classic;html=1;rounded=0;" edge="1" parent="1">
          <mxGeometry width="50" height="50" relative="1" as="geometry">
            <mxPoint x="350" y="228" as="sourcePoint" />
            <mxPoint x="350" y="261" as="targetPoint" />
          </mxGeometry>
        </mxCell>
        <mxCell id="2-FnbDXYWDibML0f8TJd-11" value="" style="endArrow=classic;html=1;rounded=0;entryX=0.5;entryY=0;entryDx=0;entryDy=0;" edge="1" parent="1" target="2-FnbDXYWDibML0f8TJd-13">
          <mxGeometry width="50" height="50" relative="1" as="geometry">
            <mxPoint x="23" y="224" as="sourcePoint" />
            <mxPoint x="23" y="257" as="targetPoint" />
          </mxGeometry>
        </mxCell>
        <mxCell id="2-FnbDXYWDibML0f8TJd-12" value="" style="endArrow=classic;html=1;rounded=0;" edge="1" parent="1">
          <mxGeometry width="50" height="50" relative="1" as="geometry">
            <mxPoint x="194" y="226" as="sourcePoint" />
            <mxPoint x="194" y="259" as="targetPoint" />
          </mxGeometry>
        </mxCell>
        <mxCell id="2-FnbDXYWDibML0f8TJd-24" style="edgeStyle=orthogonalEdgeStyle;rounded=0;orthogonalLoop=1;jettySize=auto;html=1;entryX=0.5;entryY=0;entryDx=0;entryDy=0;" edge="1" parent="1" source="2-FnbDXYWDibML0f8TJd-13" target="2-FnbDXYWDibML0f8TJd-19">
          <mxGeometry relative="1" as="geometry" />
        </mxCell>
        <mxCell id="2-FnbDXYWDibML0f8TJd-13" value="&lt;b&gt;Header&lt;/b&gt;" style="rounded=0;whiteSpace=wrap;html=1;strokeColor=#d6b656;fillColor=#fff2cc;" vertex="1" parent="1">
          <mxGeometry x="-16" y="258" width="79" height="39" as="geometry" />
        </mxCell>
        <mxCell id="2-FnbDXYWDibML0f8TJd-39" style="edgeStyle=orthogonalEdgeStyle;rounded=0;orthogonalLoop=1;jettySize=auto;html=1;strokeWidth=1;" edge="1" parent="1" source="2-FnbDXYWDibML0f8TJd-14">
          <mxGeometry relative="1" as="geometry">
            <mxPoint x="198.5" y="330.79998779296875" as="targetPoint" />
          </mxGeometry>
        </mxCell>
        <mxCell id="2-FnbDXYWDibML0f8TJd-14" value="&lt;b&gt;Home&lt;/b&gt;" style="rounded=0;whiteSpace=wrap;html=1;strokeColor=#d6b656;fillColor=#fff2cc;" vertex="1" parent="1">
          <mxGeometry x="159" y="261" width="79" height="39" as="geometry" />
        </mxCell>
        <mxCell id="2-FnbDXYWDibML0f8TJd-15" value="&lt;b&gt;Footer&lt;/b&gt;" style="rounded=0;whiteSpace=wrap;html=1;strokeColor=#d6b656;fillColor=#fff2cc;" vertex="1" parent="1">
          <mxGeometry x="298" y="261" width="79" height="39" as="geometry" />
        </mxCell>
        <mxCell id="2-FnbDXYWDibML0f8TJd-27" style="edgeStyle=orthogonalEdgeStyle;rounded=0;orthogonalLoop=1;jettySize=auto;html=1;entryX=0;entryY=0.5;entryDx=0;entryDy=0;strokeWidth=1;" edge="1" parent="1" source="2-FnbDXYWDibML0f8TJd-19" target="2-FnbDXYWDibML0f8TJd-25">
          <mxGeometry relative="1" as="geometry" />
        </mxCell>
        <mxCell id="2-FnbDXYWDibML0f8TJd-19" value="Navbar" style="rounded=0;whiteSpace=wrap;html=1;strokeColor=#d6b656;fillColor=#fff2cc;" vertex="1" parent="1">
          <mxGeometry x="-16" y="318" width="79" height="39" as="geometry" />
        </mxCell>
        <mxCell id="2-FnbDXYWDibML0f8TJd-25" value="title" style="rounded=0;whiteSpace=wrap;html=1;strokeColor=#6c8ebf;fillColor=#dae8fc;" vertex="1" parent="1">
          <mxGeometry x="-118" y="383" width="97" height="24" as="geometry" />
        </mxCell>
        <mxCell id="2-FnbDXYWDibML0f8TJd-26" value="commodities link" style="rounded=0;whiteSpace=wrap;html=1;strokeColor=#6c8ebf;fillColor=#dae8fc;" vertex="1" parent="1">
          <mxGeometry x="-118" y="420" width="96" height="24" as="geometry" />
        </mxCell>
        <mxCell id="2-FnbDXYWDibML0f8TJd-30" value="" style="endArrow=none;html=1;rounded=0;strokeWidth=1;" edge="1" parent="1">
          <mxGeometry width="50" height="50" relative="1" as="geometry">
            <mxPoint x="-138" y="547" as="sourcePoint" />
            <mxPoint x="-138" y="396" as="targetPoint" />
          </mxGeometry>
        </mxCell>
        <mxCell id="2-FnbDXYWDibML0f8TJd-31" value="" style="endArrow=classic;html=1;rounded=0;strokeWidth=1;" edge="1" parent="1">
          <mxGeometry width="50" height="50" relative="1" as="geometry">
            <mxPoint x="-137" y="431" as="sourcePoint" />
            <mxPoint x="-118" y="431" as="targetPoint" />
          </mxGeometry>
        </mxCell>
        <mxCell id="2-FnbDXYWDibML0f8TJd-32" value="stock&amp;amp;price link" style="rounded=0;whiteSpace=wrap;html=1;strokeColor=#6c8ebf;fillColor=#dae8fc;" vertex="1" parent="1">
          <mxGeometry x="-117" y="457" width="96" height="24" as="geometry" />
        </mxCell>
        <mxCell id="2-FnbDXYWDibML0f8TJd-33" value="orders link" style="rounded=0;whiteSpace=wrap;html=1;strokeColor=#6c8ebf;fillColor=#dae8fc;" vertex="1" parent="1">
          <mxGeometry x="-117" y="494" width="96" height="24" as="geometry" />
        </mxCell>
        <mxCell id="2-FnbDXYWDibML0f8TJd-34" value="back to home link" style="rounded=0;whiteSpace=wrap;html=1;strokeColor=#6c8ebf;fillColor=#dae8fc;" vertex="1" parent="1">
          <mxGeometry x="-118" y="534" width="101" height="24" as="geometry" />
        </mxCell>
        <mxCell id="2-FnbDXYWDibML0f8TJd-35" value="" style="endArrow=classic;html=1;rounded=0;strokeWidth=1;entryX=0;entryY=0.5;entryDx=0;entryDy=0;" edge="1" parent="1" target="2-FnbDXYWDibML0f8TJd-32">
          <mxGeometry width="50" height="50" relative="1" as="geometry">
            <mxPoint x="-139" y="468.5" as="sourcePoint" />
            <mxPoint x="-120" y="469.5" as="targetPoint" />
          </mxGeometry>
        </mxCell>
        <mxCell id="2-FnbDXYWDibML0f8TJd-36" value="" style="endArrow=classic;html=1;rounded=0;strokeWidth=1;entryX=0;entryY=0.5;entryDx=0;entryDy=0;" edge="1" parent="1">
          <mxGeometry width="50" height="50" relative="1" as="geometry">
            <mxPoint x="-139" y="507" as="sourcePoint" />
            <mxPoint x="-118" y="506.5" as="targetPoint" />
          </mxGeometry>
        </mxCell>
        <mxCell id="2-FnbDXYWDibML0f8TJd-37" value="" style="endArrow=classic;html=1;rounded=0;strokeWidth=1;" edge="1" parent="1">
          <mxGeometry width="50" height="50" relative="1" as="geometry">
            <mxPoint x="-137" y="546" as="sourcePoint" />
            <mxPoint x="-118" y="546" as="targetPoint" />
          </mxGeometry>
        </mxCell>
        <mxCell id="2-FnbDXYWDibML0f8TJd-38" value="" style="endArrow=none;html=1;rounded=0;strokeWidth=1;" edge="1" parent="1">
          <mxGeometry width="50" height="50" relative="1" as="geometry">
            <mxPoint x="143.5" y="331" as="sourcePoint" />
            <mxPoint x="419" y="331" as="targetPoint" />
          </mxGeometry>
        </mxCell>
        <mxCell id="2-FnbDXYWDibML0f8TJd-40" value="Commodities&amp;nbsp;" style="rounded=0;whiteSpace=wrap;html=1;strokeColor=#d6b656;fillColor=#fff2cc;" vertex="1" parent="1">
          <mxGeometry x="110" y="354" width="79" height="39" as="geometry" />
        </mxCell>
        <mxCell id="2-FnbDXYWDibML0f8TJd-43" value="Stock&amp;amp;Price&amp;nbsp;" style="rounded=0;whiteSpace=wrap;html=1;strokeColor=#d6b656;fillColor=#fff2cc;" vertex="1" parent="1">
          <mxGeometry x="241" y="354" width="79" height="39" as="geometry" />
        </mxCell>
        <mxCell id="2-FnbDXYWDibML0f8TJd-44" value="Orders&amp;nbsp;" style="rounded=0;whiteSpace=wrap;html=1;strokeColor=#d6b656;fillColor=#fff2cc;" vertex="1" parent="1">
          <mxGeometry x="380" y="354" width="79" height="39" as="geometry" />
        </mxCell>
        <mxCell id="2-FnbDXYWDibML0f8TJd-45" style="edgeStyle=orthogonalEdgeStyle;rounded=0;orthogonalLoop=1;jettySize=auto;html=1;entryX=0.5;entryY=0;entryDx=0;entryDy=0;" edge="1" parent="1">
          <mxGeometry relative="1" as="geometry">
            <mxPoint x="145" y="333" as="sourcePoint" />
            <mxPoint x="145" y="354" as="targetPoint" />
          </mxGeometry>
        </mxCell>
        <mxCell id="2-FnbDXYWDibML0f8TJd-46" style="edgeStyle=orthogonalEdgeStyle;rounded=0;orthogonalLoop=1;jettySize=auto;html=1;entryX=0.5;entryY=0;entryDx=0;entryDy=0;" edge="1" parent="1">
          <mxGeometry relative="1" as="geometry">
            <mxPoint x="419" y="333" as="sourcePoint" />
            <mxPoint x="419" y="354" as="targetPoint" />
            <Array as="points">
              <mxPoint x="419" y="340" />
              <mxPoint x="419" y="340" />
            </Array>
          </mxGeometry>
        </mxCell>
        <mxCell id="2-FnbDXYWDibML0f8TJd-47" style="edgeStyle=orthogonalEdgeStyle;rounded=0;orthogonalLoop=1;jettySize=auto;html=1;entryX=0.5;entryY=0;entryDx=0;entryDy=0;" edge="1" parent="1">
          <mxGeometry relative="1" as="geometry">
            <mxPoint x="279.5" y="332" as="sourcePoint" />
            <mxPoint x="279.5" y="353" as="targetPoint" />
          </mxGeometry>
        </mxCell>
        <mxCell id="2-FnbDXYWDibML0f8TJd-49" value="title" style="rounded=0;whiteSpace=wrap;html=1;strokeColor=#6c8ebf;fillColor=#dae8fc;" vertex="1" parent="1">
          <mxGeometry x="78" y="420" width="97" height="24" as="geometry" />
        </mxCell>
        <mxCell id="2-FnbDXYWDibML0f8TJd-50" value="thumbnail" style="rounded=0;whiteSpace=wrap;html=1;strokeColor=#6c8ebf;fillColor=#dae8fc;" vertex="1" parent="1">
          <mxGeometry x="78" y="457" width="96" height="24" as="geometry" />
        </mxCell>
        <mxCell id="2-FnbDXYWDibML0f8TJd-51" value="" style="endArrow=none;html=1;rounded=0;strokeWidth=1;" edge="1" parent="1">
          <mxGeometry width="50" height="50" relative="1" as="geometry">
            <mxPoint x="56" y="621" as="sourcePoint" />
            <mxPoint x="56" y="375" as="targetPoint" />
          </mxGeometry>
        </mxCell>
        <mxCell id="2-FnbDXYWDibML0f8TJd-52" value="" style="endArrow=classic;html=1;rounded=0;strokeWidth=1;" edge="1" parent="1">
          <mxGeometry width="50" height="50" relative="1" as="geometry">
            <mxPoint x="56" y="468" as="sourcePoint" />
            <mxPoint x="78" y="468" as="targetPoint" />
          </mxGeometry>
        </mxCell>
        <mxCell id="2-FnbDXYWDibML0f8TJd-95" style="edgeStyle=orthogonalEdgeStyle;rounded=0;orthogonalLoop=1;jettySize=auto;html=1;strokeWidth=1;entryX=0.5;entryY=0;entryDx=0;entryDy=0;" edge="1" parent="1" source="2-FnbDXYWDibML0f8TJd-53" target="2-FnbDXYWDibML0f8TJd-96">
          <mxGeometry relative="1" as="geometry">
            <mxPoint x="12.917587280273438" y="636.8209609985352" as="targetPoint" />
          </mxGeometry>
        </mxCell>
        <mxCell id="2-FnbDXYWDibML0f8TJd-53" value="Add button" style="rounded=0;whiteSpace=wrap;html=1;strokeColor=#6c8ebf;fillColor=#dae8fc;" vertex="1" parent="1">
          <mxGeometry x="79" y="494" width="96" height="24" as="geometry" />
        </mxCell>
        <mxCell id="2-FnbDXYWDibML0f8TJd-54" value="Table Rows" style="rounded=0;whiteSpace=wrap;html=1;strokeColor=#6c8ebf;fillColor=#dae8fc;" vertex="1" parent="1">
          <mxGeometry x="79" y="531" width="96" height="24" as="geometry" />
        </mxCell>
        <mxCell id="2-FnbDXYWDibML0f8TJd-138" style="edgeStyle=orthogonalEdgeStyle;rounded=0;orthogonalLoop=1;jettySize=auto;html=1;strokeWidth=1;" edge="1" parent="1" source="2-FnbDXYWDibML0f8TJd-55" target="2-FnbDXYWDibML0f8TJd-98">
          <mxGeometry relative="1" as="geometry" />
        </mxCell>
        <mxCell id="2-FnbDXYWDibML0f8TJd-55" value="Edit button" style="rounded=0;whiteSpace=wrap;html=1;strokeColor=#6c8ebf;fillColor=#dae8fc;" vertex="1" parent="1">
          <mxGeometry x="78" y="571" width="101" height="24" as="geometry" />
        </mxCell>
        <mxCell id="2-FnbDXYWDibML0f8TJd-56" value="" style="endArrow=classic;html=1;rounded=0;strokeWidth=1;entryX=0;entryY=0.5;entryDx=0;entryDy=0;" edge="1" target="2-FnbDXYWDibML0f8TJd-53" parent="1">
          <mxGeometry width="50" height="50" relative="1" as="geometry">
            <mxPoint x="57" y="505.5" as="sourcePoint" />
            <mxPoint x="76" y="506.5" as="targetPoint" />
          </mxGeometry>
        </mxCell>
        <mxCell id="2-FnbDXYWDibML0f8TJd-57" value="" style="endArrow=classic;html=1;rounded=0;strokeWidth=1;entryX=0;entryY=0.5;entryDx=0;entryDy=0;" edge="1" parent="1">
          <mxGeometry width="50" height="50" relative="1" as="geometry">
            <mxPoint x="57" y="544" as="sourcePoint" />
            <mxPoint x="78" y="543.5" as="targetPoint" />
          </mxGeometry>
        </mxCell>
        <mxCell id="2-FnbDXYWDibML0f8TJd-58" value="" style="endArrow=classic;html=1;rounded=0;strokeWidth=1;" edge="1" parent="1">
          <mxGeometry width="50" height="50" relative="1" as="geometry">
            <mxPoint x="57" y="583" as="sourcePoint" />
            <mxPoint x="78" y="583" as="targetPoint" />
          </mxGeometry>
        </mxCell>
        <mxCell id="2-FnbDXYWDibML0f8TJd-59" value="title" style="rounded=0;whiteSpace=wrap;html=1;strokeColor=#6c8ebf;fillColor=#dae8fc;" vertex="1" parent="1">
          <mxGeometry x="219" y="418.5" width="97" height="24" as="geometry" />
        </mxCell>
        <mxCell id="2-FnbDXYWDibML0f8TJd-60" value="Table Rows" style="rounded=0;whiteSpace=wrap;html=1;strokeColor=#6c8ebf;fillColor=#dae8fc;" vertex="1" parent="1">
          <mxGeometry x="219" y="455.5" width="96" height="24" as="geometry" />
        </mxCell>
        <mxCell id="2-FnbDXYWDibML0f8TJd-61" value="" style="endArrow=none;html=1;rounded=0;strokeWidth=1;" edge="1" parent="1">
          <mxGeometry width="50" height="50" relative="1" as="geometry">
            <mxPoint x="201" y="506" as="sourcePoint" />
            <mxPoint x="201" y="376" as="targetPoint" />
          </mxGeometry>
        </mxCell>
        <mxCell id="2-FnbDXYWDibML0f8TJd-62" value="" style="endArrow=classic;html=1;rounded=0;strokeWidth=1;" edge="1" parent="1">
          <mxGeometry width="50" height="50" relative="1" as="geometry">
            <mxPoint x="200" y="466.5" as="sourcePoint" />
            <mxPoint x="219" y="466.5" as="targetPoint" />
          </mxGeometry>
        </mxCell>
        <mxCell id="2-FnbDXYWDibML0f8TJd-63" value="Save button" style="rounded=0;whiteSpace=wrap;html=1;strokeColor=#6c8ebf;fillColor=#dae8fc;" vertex="1" parent="1">
          <mxGeometry x="220" y="492.5" width="96" height="24" as="geometry" />
        </mxCell>
        <mxCell id="2-FnbDXYWDibML0f8TJd-69" value="title" style="rounded=0;whiteSpace=wrap;html=1;strokeColor=#6c8ebf;fillColor=#dae8fc;" vertex="1" parent="1">
          <mxGeometry x="362" y="417" width="97" height="24" as="geometry" />
        </mxCell>
        <mxCell id="2-FnbDXYWDibML0f8TJd-70" value="delivered orders link" style="rounded=0;whiteSpace=wrap;html=1;strokeColor=#6c8ebf;fillColor=#dae8fc;" vertex="1" parent="1">
          <mxGeometry x="362" y="454" width="111" height="24" as="geometry" />
        </mxCell>
        <mxCell id="2-FnbDXYWDibML0f8TJd-71" value="" style="endArrow=none;html=1;rounded=0;strokeWidth=1;" edge="1" parent="1">
          <mxGeometry width="50" height="50" relative="1" as="geometry">
            <mxPoint x="342" y="621" as="sourcePoint" />
            <mxPoint x="342" y="374" as="targetPoint" />
          </mxGeometry>
        </mxCell>
        <mxCell id="2-FnbDXYWDibML0f8TJd-72" value="" style="endArrow=classic;html=1;rounded=0;strokeWidth=1;" edge="1" parent="1">
          <mxGeometry width="50" height="50" relative="1" as="geometry">
            <mxPoint x="343" y="465" as="sourcePoint" />
            <mxPoint x="362" y="465" as="targetPoint" />
          </mxGeometry>
        </mxCell>
        <mxCell id="2-FnbDXYWDibML0f8TJd-73" value="sending orders link" style="rounded=0;whiteSpace=wrap;html=1;strokeColor=#6c8ebf;fillColor=#dae8fc;" vertex="1" parent="1">
          <mxGeometry x="363" y="491" width="109" height="24" as="geometry" />
        </mxCell>
        <mxCell id="2-FnbDXYWDibML0f8TJd-74" value="Table Rows" style="rounded=0;whiteSpace=wrap;html=1;strokeColor=#6c8ebf;fillColor=#dae8fc;" vertex="1" parent="1">
          <mxGeometry x="363" y="528" width="96" height="24" as="geometry" />
        </mxCell>
        <mxCell id="2-FnbDXYWDibML0f8TJd-75" value="checking orders link" style="rounded=0;whiteSpace=wrap;html=1;strokeColor=#6c8ebf;fillColor=#dae8fc;" vertex="1" parent="1">
          <mxGeometry x="362" y="568" width="115" height="24" as="geometry" />
        </mxCell>
        <mxCell id="2-FnbDXYWDibML0f8TJd-77" value="" style="endArrow=classic;html=1;rounded=0;strokeWidth=1;entryX=0;entryY=0.5;entryDx=0;entryDy=0;" edge="1" parent="1">
          <mxGeometry width="50" height="50" relative="1" as="geometry">
            <mxPoint x="341" y="541" as="sourcePoint" />
            <mxPoint x="362" y="540.5" as="targetPoint" />
          </mxGeometry>
        </mxCell>
        <mxCell id="2-FnbDXYWDibML0f8TJd-78" value="" style="endArrow=classic;html=1;rounded=0;strokeWidth=1;" edge="1" parent="1">
          <mxGeometry width="50" height="50" relative="1" as="geometry">
            <mxPoint x="343" y="580" as="sourcePoint" />
            <mxPoint x="362" y="580" as="targetPoint" />
          </mxGeometry>
        </mxCell>
        <mxCell id="2-FnbDXYWDibML0f8TJd-81" value="" style="endArrow=none;html=1;rounded=0;strokeWidth=1;" edge="1" parent="1">
          <mxGeometry width="50" height="50" relative="1" as="geometry">
            <mxPoint x="57" y="376" as="sourcePoint" />
            <mxPoint x="108" y="376" as="targetPoint" />
          </mxGeometry>
        </mxCell>
        <mxCell id="2-FnbDXYWDibML0f8TJd-82" value="" style="endArrow=none;html=1;rounded=0;strokeWidth=1;" edge="1" parent="1">
          <mxGeometry width="50" height="50" relative="1" as="geometry">
            <mxPoint x="200" y="374" as="sourcePoint" />
            <mxPoint x="241" y="374" as="targetPoint" />
          </mxGeometry>
        </mxCell>
        <mxCell id="2-FnbDXYWDibML0f8TJd-83" value="" style="endArrow=none;html=1;rounded=0;strokeWidth=1;entryX=0;entryY=0.5;entryDx=0;entryDy=0;" edge="1" parent="1" target="2-FnbDXYWDibML0f8TJd-44">
          <mxGeometry width="50" height="50" relative="1" as="geometry">
            <mxPoint x="342" y="374" as="sourcePoint" />
            <mxPoint x="398" y="360" as="targetPoint" />
          </mxGeometry>
        </mxCell>
        <mxCell id="2-FnbDXYWDibML0f8TJd-187" style="edgeStyle=orthogonalEdgeStyle;rounded=0;orthogonalLoop=1;jettySize=auto;html=1;strokeWidth=1;" edge="1" parent="1" source="2-FnbDXYWDibML0f8TJd-84">
          <mxGeometry relative="1" as="geometry">
            <mxPoint x="428.5" y="681.01171875" as="targetPoint" />
          </mxGeometry>
        </mxCell>
        <mxCell id="2-FnbDXYWDibML0f8TJd-84" value="Checking orders Modal" style="rounded=0;whiteSpace=wrap;html=1;strokeColor=#d6b656;fillColor=#fff2cc;" vertex="1" parent="1">
          <mxGeometry x="362" y="608" width="133" height="41" as="geometry" />
        </mxCell>
        <mxCell id="2-FnbDXYWDibML0f8TJd-85" value="" style="endArrow=classic;html=1;rounded=0;strokeWidth=1;" edge="1" parent="1">
          <mxGeometry width="50" height="50" relative="1" as="geometry">
            <mxPoint x="343" y="619.5" as="sourcePoint" />
            <mxPoint x="362" y="619.5" as="targetPoint" />
          </mxGeometry>
        </mxCell>
        <mxCell id="2-FnbDXYWDibML0f8TJd-99" style="edgeStyle=orthogonalEdgeStyle;rounded=0;orthogonalLoop=1;jettySize=auto;html=1;strokeWidth=1;" edge="1" parent="1" source="2-FnbDXYWDibML0f8TJd-86">
          <mxGeometry relative="1" as="geometry">
            <mxPoint x="128.5" y="657.7300796508789" as="targetPoint" />
          </mxGeometry>
        </mxCell>
        <mxCell id="2-FnbDXYWDibML0f8TJd-86" value="Delete button" style="rounded=0;whiteSpace=wrap;html=1;strokeColor=#6c8ebf;fillColor=#dae8fc;" vertex="1" parent="1">
          <mxGeometry x="78" y="608" width="101" height="24" as="geometry" />
        </mxCell>
        <mxCell id="2-FnbDXYWDibML0f8TJd-87" value="" style="endArrow=classic;html=1;rounded=0;strokeWidth=1;" edge="1" parent="1">
          <mxGeometry width="50" height="50" relative="1" as="geometry">
            <mxPoint x="57" y="619.5" as="sourcePoint" />
            <mxPoint x="76" y="619.5" as="targetPoint" />
          </mxGeometry>
        </mxCell>
        <mxCell id="2-FnbDXYWDibML0f8TJd-88" value="" style="endArrow=classic;html=1;rounded=0;strokeWidth=1;" edge="1" parent="1">
          <mxGeometry width="50" height="50" relative="1" as="geometry">
            <mxPoint x="201" y="505.5" as="sourcePoint" />
            <mxPoint x="220" y="505.5" as="targetPoint" />
          </mxGeometry>
        </mxCell>
        <mxCell id="2-FnbDXYWDibML0f8TJd-89" value="" style="endArrow=classic;html=1;rounded=0;strokeWidth=1;" edge="1" parent="1">
          <mxGeometry width="50" height="50" relative="1" as="geometry">
            <mxPoint x="56" y="431.5" as="sourcePoint" />
            <mxPoint x="75" y="431.5" as="targetPoint" />
          </mxGeometry>
        </mxCell>
        <mxCell id="2-FnbDXYWDibML0f8TJd-90" value="" style="endArrow=classic;html=1;rounded=0;strokeWidth=1;" edge="1" parent="1">
          <mxGeometry width="50" height="50" relative="1" as="geometry">
            <mxPoint x="200" y="431.5" as="sourcePoint" />
            <mxPoint x="219" y="431.5" as="targetPoint" />
          </mxGeometry>
        </mxCell>
        <mxCell id="2-FnbDXYWDibML0f8TJd-91" value="" style="endArrow=classic;html=1;rounded=0;strokeWidth=1;" edge="1" parent="1">
          <mxGeometry width="50" height="50" relative="1" as="geometry">
            <mxPoint x="343" y="430" as="sourcePoint" />
            <mxPoint x="362" y="430" as="targetPoint" />
          </mxGeometry>
        </mxCell>
        <mxCell id="2-FnbDXYWDibML0f8TJd-94" value="" style="endArrow=classic;html=1;rounded=0;strokeWidth=1;" edge="1" parent="1">
          <mxGeometry width="50" height="50" relative="1" as="geometry">
            <mxPoint x="343" y="504" as="sourcePoint" />
            <mxPoint x="362" y="504" as="targetPoint" />
          </mxGeometry>
        </mxCell>
        <mxCell id="2-FnbDXYWDibML0f8TJd-96" value="Add Modal" style="rounded=0;whiteSpace=wrap;html=1;strokeColor=#d6b656;fillColor=#fff2cc;" vertex="1" parent="1">
          <mxGeometry x="-50" y="659" width="96" height="35" as="geometry" />
        </mxCell>
        <mxCell id="2-FnbDXYWDibML0f8TJd-98" value="Edit Modal" style="rounded=0;whiteSpace=wrap;html=1;strokeColor=#d6b656;fillColor=#fff2cc;" vertex="1" parent="1">
          <mxGeometry x="223" y="608" width="101" height="34" as="geometry" />
        </mxCell>
        <mxCell id="2-FnbDXYWDibML0f8TJd-100" value="Delete Modal" style="rounded=0;whiteSpace=wrap;html=1;strokeColor=#d6b656;fillColor=#fff2cc;" vertex="1" parent="1">
          <mxGeometry x="82" y="659" width="101" height="35" as="geometry" />
        </mxCell>
        <mxCell id="2-FnbDXYWDibML0f8TJd-101" value="title" style="rounded=0;whiteSpace=wrap;html=1;strokeColor=#6c8ebf;fillColor=#dae8fc;" vertex="1" parent="1">
          <mxGeometry x="-76" y="709" width="97" height="24" as="geometry" />
        </mxCell>
        <mxCell id="2-FnbDXYWDibML0f8TJd-102" value="browse/ image" style="rounded=0;whiteSpace=wrap;html=1;strokeColor=#6c8ebf;fillColor=#dae8fc;" vertex="1" parent="1">
          <mxGeometry x="-76" y="746" width="96" height="24" as="geometry" />
        </mxCell>
        <mxCell id="2-FnbDXYWDibML0f8TJd-103" value="" style="endArrow=none;html=1;rounded=0;strokeWidth=1;" edge="1" parent="1">
          <mxGeometry width="50" height="50" relative="1" as="geometry">
            <mxPoint x="-96" y="873" as="sourcePoint" />
            <mxPoint x="-96" y="675" as="targetPoint" />
          </mxGeometry>
        </mxCell>
        <mxCell id="2-FnbDXYWDibML0f8TJd-104" value="" style="endArrow=classic;html=1;rounded=0;strokeWidth=1;" edge="1" parent="1">
          <mxGeometry width="50" height="50" relative="1" as="geometry">
            <mxPoint x="-95" y="757" as="sourcePoint" />
            <mxPoint x="-76" y="757" as="targetPoint" />
          </mxGeometry>
        </mxCell>
        <mxCell id="2-FnbDXYWDibML0f8TJd-105" value="inputs" style="rounded=0;whiteSpace=wrap;html=1;strokeColor=#6c8ebf;fillColor=#dae8fc;" vertex="1" parent="1">
          <mxGeometry x="-75" y="783" width="96" height="24" as="geometry" />
        </mxCell>
        <mxCell id="2-FnbDXYWDibML0f8TJd-106" value="description textarea" style="rounded=0;whiteSpace=wrap;html=1;strokeColor=#6c8ebf;fillColor=#dae8fc;" vertex="1" parent="1">
          <mxGeometry x="-75" y="820" width="112" height="24" as="geometry" />
        </mxCell>
        <mxCell id="2-FnbDXYWDibML0f8TJd-107" value="" style="endArrow=classic;html=1;rounded=0;strokeWidth=1;entryX=0;entryY=0.5;entryDx=0;entryDy=0;" edge="1" target="2-FnbDXYWDibML0f8TJd-105" parent="1">
          <mxGeometry width="50" height="50" relative="1" as="geometry">
            <mxPoint x="-97" y="794.5" as="sourcePoint" />
            <mxPoint x="-78" y="795.5" as="targetPoint" />
          </mxGeometry>
        </mxCell>
        <mxCell id="2-FnbDXYWDibML0f8TJd-108" value="" style="endArrow=classic;html=1;rounded=0;strokeWidth=1;entryX=0;entryY=0.5;entryDx=0;entryDy=0;" edge="1" parent="1">
          <mxGeometry width="50" height="50" relative="1" as="geometry">
            <mxPoint x="-97" y="833" as="sourcePoint" />
            <mxPoint x="-76" y="832.5" as="targetPoint" />
          </mxGeometry>
        </mxCell>
        <mxCell id="2-FnbDXYWDibML0f8TJd-109" value="" style="endArrow=classic;html=1;rounded=0;strokeWidth=1;" edge="1" parent="1">
          <mxGeometry width="50" height="50" relative="1" as="geometry">
            <mxPoint x="-95" y="872" as="sourcePoint" />
            <mxPoint x="-76" y="872" as="targetPoint" />
          </mxGeometry>
        </mxCell>
        <mxCell id="2-FnbDXYWDibML0f8TJd-110" value="title" style="rounded=0;whiteSpace=wrap;html=1;strokeColor=#6c8ebf;fillColor=#dae8fc;" vertex="1" parent="1">
          <mxGeometry x="84" y="705" width="97" height="24" as="geometry" />
        </mxCell>
        <mxCell id="2-FnbDXYWDibML0f8TJd-111" value="browse/ image" style="rounded=0;whiteSpace=wrap;html=1;strokeColor=#6c8ebf;fillColor=#dae8fc;" vertex="1" parent="1">
          <mxGeometry x="84" y="742" width="96" height="24" as="geometry" />
        </mxCell>
        <mxCell id="2-FnbDXYWDibML0f8TJd-112" value="" style="endArrow=none;html=1;rounded=0;strokeWidth=1;" edge="1" parent="1">
          <mxGeometry width="50" height="50" relative="1" as="geometry">
            <mxPoint x="64" y="869" as="sourcePoint" />
            <mxPoint x="64" y="669" as="targetPoint" />
          </mxGeometry>
        </mxCell>
        <mxCell id="2-FnbDXYWDibML0f8TJd-113" value="" style="endArrow=classic;html=1;rounded=0;strokeWidth=1;" edge="1" parent="1">
          <mxGeometry width="50" height="50" relative="1" as="geometry">
            <mxPoint x="65" y="753" as="sourcePoint" />
            <mxPoint x="84" y="753" as="targetPoint" />
          </mxGeometry>
        </mxCell>
        <mxCell id="2-FnbDXYWDibML0f8TJd-114" value="inputs" style="rounded=0;whiteSpace=wrap;html=1;strokeColor=#6c8ebf;fillColor=#dae8fc;" vertex="1" parent="1">
          <mxGeometry x="85" y="779" width="96" height="24" as="geometry" />
        </mxCell>
        <mxCell id="2-FnbDXYWDibML0f8TJd-115" value="description textarea" style="rounded=0;whiteSpace=wrap;html=1;strokeColor=#6c8ebf;fillColor=#dae8fc;" vertex="1" parent="1">
          <mxGeometry x="85" y="816" width="108" height="24" as="geometry" />
        </mxCell>
        <mxCell id="2-FnbDXYWDibML0f8TJd-116" value="" style="endArrow=classic;html=1;rounded=0;strokeWidth=1;entryX=0;entryY=0.5;entryDx=0;entryDy=0;" edge="1" target="2-FnbDXYWDibML0f8TJd-114" parent="1">
          <mxGeometry width="50" height="50" relative="1" as="geometry">
            <mxPoint x="63" y="790.5" as="sourcePoint" />
            <mxPoint x="82" y="791.5" as="targetPoint" />
          </mxGeometry>
        </mxCell>
        <mxCell id="2-FnbDXYWDibML0f8TJd-117" value="" style="endArrow=classic;html=1;rounded=0;strokeWidth=1;entryX=0;entryY=0.5;entryDx=0;entryDy=0;" edge="1" parent="1">
          <mxGeometry width="50" height="50" relative="1" as="geometry">
            <mxPoint x="63" y="829" as="sourcePoint" />
            <mxPoint x="84" y="828.5" as="targetPoint" />
          </mxGeometry>
        </mxCell>
        <mxCell id="2-FnbDXYWDibML0f8TJd-118" value="" style="endArrow=classic;html=1;rounded=0;strokeWidth=1;" edge="1" parent="1">
          <mxGeometry width="50" height="50" relative="1" as="geometry">
            <mxPoint x="65" y="868" as="sourcePoint" />
            <mxPoint x="84" y="868" as="targetPoint" />
          </mxGeometry>
        </mxCell>
        <mxCell id="2-FnbDXYWDibML0f8TJd-139" value="title" style="rounded=0;whiteSpace=wrap;html=1;strokeColor=#6c8ebf;fillColor=#dae8fc;" vertex="1" parent="1">
          <mxGeometry x="224.5" y="652" width="97" height="24" as="geometry" />
        </mxCell>
        <mxCell id="2-FnbDXYWDibML0f8TJd-140" value="browse/ image" style="rounded=0;whiteSpace=wrap;html=1;strokeColor=#6c8ebf;fillColor=#dae8fc;" vertex="1" parent="1">
          <mxGeometry x="224.5" y="689" width="96" height="24" as="geometry" />
        </mxCell>
        <mxCell id="2-FnbDXYWDibML0f8TJd-141" value="" style="endArrow=none;html=1;rounded=0;strokeWidth=1;" edge="1" parent="1">
          <mxGeometry width="50" height="50" relative="1" as="geometry">
            <mxPoint x="204.5" y="816" as="sourcePoint" />
            <mxPoint x="205" y="621" as="targetPoint" />
          </mxGeometry>
        </mxCell>
        <mxCell id="2-FnbDXYWDibML0f8TJd-142" value="" style="endArrow=classic;html=1;rounded=0;strokeWidth=1;" edge="1" parent="1">
          <mxGeometry width="50" height="50" relative="1" as="geometry">
            <mxPoint x="205.5" y="700" as="sourcePoint" />
            <mxPoint x="224.5" y="700" as="targetPoint" />
          </mxGeometry>
        </mxCell>
        <mxCell id="2-FnbDXYWDibML0f8TJd-143" value="inputs" style="rounded=0;whiteSpace=wrap;html=1;strokeColor=#6c8ebf;fillColor=#dae8fc;" vertex="1" parent="1">
          <mxGeometry x="225.5" y="726" width="96" height="24" as="geometry" />
        </mxCell>
        <mxCell id="2-FnbDXYWDibML0f8TJd-144" value="description textarea" style="rounded=0;whiteSpace=wrap;html=1;strokeColor=#6c8ebf;fillColor=#dae8fc;" vertex="1" parent="1">
          <mxGeometry x="225.5" y="763" width="110.5" height="24" as="geometry" />
        </mxCell>
        <mxCell id="2-FnbDXYWDibML0f8TJd-145" value="" style="endArrow=classic;html=1;rounded=0;strokeWidth=1;entryX=0;entryY=0.5;entryDx=0;entryDy=0;" edge="1" target="2-FnbDXYWDibML0f8TJd-143" parent="1">
          <mxGeometry width="50" height="50" relative="1" as="geometry">
            <mxPoint x="203.5" y="737.5" as="sourcePoint" />
            <mxPoint x="222.5" y="738.5" as="targetPoint" />
          </mxGeometry>
        </mxCell>
        <mxCell id="2-FnbDXYWDibML0f8TJd-146" value="" style="endArrow=classic;html=1;rounded=0;strokeWidth=1;entryX=0;entryY=0.5;entryDx=0;entryDy=0;" edge="1" parent="1">
          <mxGeometry width="50" height="50" relative="1" as="geometry">
            <mxPoint x="203.5" y="776" as="sourcePoint" />
            <mxPoint x="224.5" y="775.5" as="targetPoint" />
          </mxGeometry>
        </mxCell>
        <mxCell id="2-FnbDXYWDibML0f8TJd-147" value="" style="endArrow=classic;html=1;rounded=0;strokeWidth=1;" edge="1" parent="1">
          <mxGeometry width="50" height="50" relative="1" as="geometry">
            <mxPoint x="205.5" y="815" as="sourcePoint" />
            <mxPoint x="224.5" y="815" as="targetPoint" />
          </mxGeometry>
        </mxCell>
        <mxCell id="2-FnbDXYWDibML0f8TJd-150" value="" style="endArrow=none;html=1;rounded=0;strokeWidth=1;" edge="1" parent="1">
          <mxGeometry width="50" height="50" relative="1" as="geometry">
            <mxPoint x="63" y="668" as="sourcePoint" />
            <mxPoint x="83" y="668" as="targetPoint" />
          </mxGeometry>
        </mxCell>
        <mxCell id="2-FnbDXYWDibML0f8TJd-151" value="" style="endArrow=none;html=1;rounded=0;strokeWidth=1;" edge="1" parent="1">
          <mxGeometry width="50" height="50" relative="1" as="geometry">
            <mxPoint x="204.5" y="619.5" as="sourcePoint" />
            <mxPoint x="224.5" y="619.5" as="targetPoint" />
          </mxGeometry>
        </mxCell>
        <mxCell id="2-FnbDXYWDibML0f8TJd-152" value="" style="endArrow=none;html=1;rounded=0;strokeWidth=1;" edge="1" parent="1">
          <mxGeometry width="50" height="50" relative="1" as="geometry">
            <mxPoint x="-96" y="675" as="sourcePoint" />
            <mxPoint x="-51" y="675" as="targetPoint" />
          </mxGeometry>
        </mxCell>
        <mxCell id="2-FnbDXYWDibML0f8TJd-153" value="Save button" style="rounded=0;whiteSpace=wrap;html=1;strokeColor=#6c8ebf;fillColor=#dae8fc;" vertex="1" parent="1">
          <mxGeometry x="-75" y="861" width="96" height="24" as="geometry" />
        </mxCell>
        <mxCell id="2-FnbDXYWDibML0f8TJd-154" value="Save button" style="rounded=0;whiteSpace=wrap;html=1;strokeColor=#6c8ebf;fillColor=#dae8fc;" vertex="1" parent="1">
          <mxGeometry x="85" y="857" width="96" height="24" as="geometry" />
        </mxCell>
        <mxCell id="2-FnbDXYWDibML0f8TJd-155" value="Save button" style="rounded=0;whiteSpace=wrap;html=1;strokeColor=#6c8ebf;fillColor=#dae8fc;" vertex="1" parent="1">
          <mxGeometry x="225.5" y="803" width="96" height="24" as="geometry" />
        </mxCell>
        <mxCell id="2-FnbDXYWDibML0f8TJd-167" value="title" style="rounded=0;whiteSpace=wrap;html=1;strokeColor=#6c8ebf;fillColor=#dae8fc;" vertex="1" parent="1">
          <mxGeometry x="382" y="682" width="97" height="24" as="geometry" />
        </mxCell>
        <mxCell id="2-FnbDXYWDibML0f8TJd-168" value="customer name" style="rounded=0;whiteSpace=wrap;html=1;strokeColor=#6c8ebf;fillColor=#dae8fc;" vertex="1" parent="1">
          <mxGeometry x="382" y="719" width="96" height="24" as="geometry" />
        </mxCell>
        <mxCell id="2-FnbDXYWDibML0f8TJd-169" value="" style="endArrow=none;html=1;rounded=0;strokeWidth=1;" edge="1" parent="1">
          <mxGeometry width="50" height="50" relative="1" as="geometry">
            <mxPoint x="363" y="974" as="sourcePoint" />
            <mxPoint x="363" y="692.5" as="targetPoint" />
          </mxGeometry>
        </mxCell>
        <mxCell id="2-FnbDXYWDibML0f8TJd-170" value="" style="endArrow=classic;html=1;rounded=0;strokeWidth=1;" edge="1" parent="1">
          <mxGeometry width="50" height="50" relative="1" as="geometry">
            <mxPoint x="363" y="730" as="sourcePoint" />
            <mxPoint x="382" y="730" as="targetPoint" />
          </mxGeometry>
        </mxCell>
        <mxCell id="2-FnbDXYWDibML0f8TJd-171" value="address" style="rounded=0;whiteSpace=wrap;html=1;strokeColor=#6c8ebf;fillColor=#dae8fc;" vertex="1" parent="1">
          <mxGeometry x="383" y="756" width="96" height="24" as="geometry" />
        </mxCell>
        <mxCell id="2-FnbDXYWDibML0f8TJd-172" value="phone" style="rounded=0;whiteSpace=wrap;html=1;strokeColor=#6c8ebf;fillColor=#dae8fc;" vertex="1" parent="1">
          <mxGeometry x="383" y="793" width="96" height="24" as="geometry" />
        </mxCell>
        <mxCell id="2-FnbDXYWDibML0f8TJd-173" value="" style="endArrow=classic;html=1;rounded=0;strokeWidth=1;" edge="1" parent="1">
          <mxGeometry width="50" height="50" relative="1" as="geometry">
            <mxPoint x="363" y="845" as="sourcePoint" />
            <mxPoint x="382" y="845" as="targetPoint" />
          </mxGeometry>
        </mxCell>
        <mxCell id="2-FnbDXYWDibML0f8TJd-175" value="created date" style="rounded=0;whiteSpace=wrap;html=1;strokeColor=#6c8ebf;fillColor=#dae8fc;" vertex="1" parent="1">
          <mxGeometry x="383" y="833" width="96" height="24" as="geometry" />
        </mxCell>
        <mxCell id="2-FnbDXYWDibML0f8TJd-178" value="" style="endArrow=classic;html=1;rounded=0;strokeWidth=1;" edge="1" parent="1">
          <mxGeometry width="50" height="50" relative="1" as="geometry">
            <mxPoint x="364" y="693" as="sourcePoint" />
            <mxPoint x="383" y="693" as="targetPoint" />
          </mxGeometry>
        </mxCell>
        <mxCell id="2-FnbDXYWDibML0f8TJd-179" value="" style="endArrow=classic;html=1;rounded=0;strokeWidth=1;" edge="1" parent="1">
          <mxGeometry width="50" height="50" relative="1" as="geometry">
            <mxPoint x="364" y="767.5" as="sourcePoint" />
            <mxPoint x="383" y="767.5" as="targetPoint" />
          </mxGeometry>
        </mxCell>
        <mxCell id="2-FnbDXYWDibML0f8TJd-180" value="" style="endArrow=classic;html=1;rounded=0;strokeWidth=1;" edge="1" parent="1">
          <mxGeometry width="50" height="50" relative="1" as="geometry">
            <mxPoint x="361" y="804.5" as="sourcePoint" />
            <mxPoint x="380" y="804.5" as="targetPoint" />
          </mxGeometry>
        </mxCell>
        <mxCell id="2-FnbDXYWDibML0f8TJd-181" value="excpected date" style="rounded=0;whiteSpace=wrap;html=1;strokeColor=#6c8ebf;fillColor=#dae8fc;" vertex="1" parent="1">
          <mxGeometry x="383" y="877" width="96" height="24" as="geometry" />
        </mxCell>
        <mxCell id="2-FnbDXYWDibML0f8TJd-182" value="Orders Table" style="rounded=0;whiteSpace=wrap;html=1;strokeColor=#6c8ebf;fillColor=#dae8fc;" vertex="1" parent="1">
          <mxGeometry x="383" y="918" width="96" height="24" as="geometry" />
        </mxCell>
        <mxCell id="2-FnbDXYWDibML0f8TJd-183" value="Delivered button" style="rounded=0;whiteSpace=wrap;html=1;strokeColor=#6c8ebf;fillColor=#dae8fc;" vertex="1" parent="1">
          <mxGeometry x="382.5" y="959" width="96" height="24" as="geometry" />
        </mxCell>
        <mxCell id="2-FnbDXYWDibML0f8TJd-184" value="" style="endArrow=classic;html=1;rounded=0;strokeWidth=1;" edge="1" parent="1">
          <mxGeometry width="50" height="50" relative="1" as="geometry">
            <mxPoint x="364" y="888.5" as="sourcePoint" />
            <mxPoint x="383" y="888.5" as="targetPoint" />
          </mxGeometry>
        </mxCell>
        <mxCell id="2-FnbDXYWDibML0f8TJd-185" value="" style="endArrow=classic;html=1;rounded=0;strokeWidth=1;" edge="1" parent="1">
          <mxGeometry width="50" height="50" relative="1" as="geometry">
            <mxPoint x="364" y="929.5" as="sourcePoint" />
            <mxPoint x="383" y="929.5" as="targetPoint" />
          </mxGeometry>
        </mxCell>
        <mxCell id="2-FnbDXYWDibML0f8TJd-186" value="" style="endArrow=classic;html=1;rounded=0;strokeWidth=1;" edge="1" parent="1">
          <mxGeometry width="50" height="50" relative="1" as="geometry">
            <mxPoint x="363.5" y="973" as="sourcePoint" />
            <mxPoint x="382.5" y="973" as="targetPoint" />
          </mxGeometry>
        </mxCell>
        <mxCell id="2-FnbDXYWDibML0f8TJd-188" value="" style="endArrow=classic;html=1;rounded=0;strokeWidth=1;" edge="1" parent="1">
          <mxGeometry width="50" height="50" relative="1" as="geometry">
            <mxPoint x="205.5" y="663.5" as="sourcePoint" />
            <mxPoint x="224.5" y="663.5" as="targetPoint" />
          </mxGeometry>
        </mxCell>
        <mxCell id="2-FnbDXYWDibML0f8TJd-189" value="" style="endArrow=classic;html=1;rounded=0;strokeWidth=1;" edge="1" parent="1">
          <mxGeometry width="50" height="50" relative="1" as="geometry">
            <mxPoint x="65" y="720.5" as="sourcePoint" />
            <mxPoint x="84" y="720.5" as="targetPoint" />
          </mxGeometry>
        </mxCell>
        <mxCell id="2-FnbDXYWDibML0f8TJd-190" value="" style="endArrow=classic;html=1;rounded=0;strokeWidth=1;" edge="1" parent="1">
          <mxGeometry width="50" height="50" relative="1" as="geometry">
            <mxPoint x="-95" y="720.5" as="sourcePoint" />
            <mxPoint x="-76" y="720.5" as="targetPoint" />
          </mxGeometry>
        </mxCell>
        <mxCell id="2-FnbDXYWDibML0f8TJd-229" style="edgeStyle=orthogonalEdgeStyle;rounded=0;orthogonalLoop=1;jettySize=auto;html=1;entryX=0.5;entryY=0;entryDx=0;entryDy=0;strokeWidth=1;" edge="1" parent="1" source="2-FnbDXYWDibML0f8TJd-192" target="2-FnbDXYWDibML0f8TJd-228">
          <mxGeometry relative="1" as="geometry" />
        </mxCell>
        <mxCell id="2-FnbDXYWDibML0f8TJd-192" value="Login" style="rounded=0;whiteSpace=wrap;html=1;strokeColor=#82b366;fillColor=#d5e8d4;" vertex="1" parent="1">
          <mxGeometry x="571" y="132" width="79" height="39" as="geometry" />
        </mxCell>
        <mxCell id="2-FnbDXYWDibML0f8TJd-211" value="title" style="rounded=0;whiteSpace=wrap;html=1;strokeColor=#6c8ebf;fillColor=#dae8fc;" vertex="1" parent="1">
          <mxGeometry x="559" y="254" width="97" height="24" as="geometry" />
        </mxCell>
        <mxCell id="2-FnbDXYWDibML0f8TJd-212" value="user name" style="rounded=0;whiteSpace=wrap;html=1;strokeColor=#6c8ebf;fillColor=#dae8fc;" vertex="1" parent="1">
          <mxGeometry x="559" y="291" width="96" height="24" as="geometry" />
        </mxCell>
        <mxCell id="2-FnbDXYWDibML0f8TJd-213" value="" style="endArrow=none;html=1;rounded=0;strokeWidth=1;" edge="1" parent="1">
          <mxGeometry width="50" height="50" relative="1" as="geometry">
            <mxPoint x="540" y="418" as="sourcePoint" />
            <mxPoint x="540" y="213" as="targetPoint" />
          </mxGeometry>
        </mxCell>
        <mxCell id="2-FnbDXYWDibML0f8TJd-214" value="" style="endArrow=classic;html=1;rounded=0;strokeWidth=1;" edge="1" parent="1">
          <mxGeometry width="50" height="50" relative="1" as="geometry">
            <mxPoint x="540" y="302" as="sourcePoint" />
            <mxPoint x="559" y="302" as="targetPoint" />
          </mxGeometry>
        </mxCell>
        <mxCell id="2-FnbDXYWDibML0f8TJd-215" value="password" style="rounded=0;whiteSpace=wrap;html=1;strokeColor=#6c8ebf;fillColor=#dae8fc;" vertex="1" parent="1">
          <mxGeometry x="560" y="328" width="96" height="24" as="geometry" />
        </mxCell>
        <mxCell id="2-FnbDXYWDibML0f8TJd-216" value="Enter button" style="rounded=0;whiteSpace=wrap;html=1;strokeColor=#6c8ebf;fillColor=#dae8fc;" vertex="1" parent="1">
          <mxGeometry x="560" y="365" width="96" height="24" as="geometry" />
        </mxCell>
        <mxCell id="2-FnbDXYWDibML0f8TJd-217" value="" style="endArrow=classic;html=1;rounded=0;strokeWidth=1;" edge="1" parent="1">
          <mxGeometry width="50" height="50" relative="1" as="geometry">
            <mxPoint x="540" y="417" as="sourcePoint" />
            <mxPoint x="559" y="417" as="targetPoint" />
          </mxGeometry>
        </mxCell>
        <mxCell id="2-FnbDXYWDibML0f8TJd-218" value="back to home link" style="rounded=0;whiteSpace=wrap;html=1;strokeColor=#6c8ebf;fillColor=#dae8fc;" vertex="1" parent="1">
          <mxGeometry x="560" y="405" width="102" height="24" as="geometry" />
        </mxCell>
        <mxCell id="2-FnbDXYWDibML0f8TJd-219" value="" style="endArrow=classic;html=1;rounded=0;strokeWidth=1;" edge="1" parent="1">
          <mxGeometry width="50" height="50" relative="1" as="geometry">
            <mxPoint x="541" y="265" as="sourcePoint" />
            <mxPoint x="560" y="265" as="targetPoint" />
          </mxGeometry>
        </mxCell>
        <mxCell id="2-FnbDXYWDibML0f8TJd-220" value="" style="endArrow=classic;html=1;rounded=0;strokeWidth=1;" edge="1" parent="1">
          <mxGeometry width="50" height="50" relative="1" as="geometry">
            <mxPoint x="541" y="339.5" as="sourcePoint" />
            <mxPoint x="560" y="339.5" as="targetPoint" />
          </mxGeometry>
        </mxCell>
        <mxCell id="2-FnbDXYWDibML0f8TJd-221" value="" style="endArrow=classic;html=1;rounded=0;strokeWidth=1;" edge="1" parent="1">
          <mxGeometry width="50" height="50" relative="1" as="geometry">
            <mxPoint x="538" y="376.5" as="sourcePoint" />
            <mxPoint x="557" y="376.5" as="targetPoint" />
          </mxGeometry>
        </mxCell>
        <mxCell id="2-FnbDXYWDibML0f8TJd-228" value="Form" style="rounded=0;whiteSpace=wrap;html=1;strokeColor=#d6b656;fillColor=#fff2cc;" vertex="1" parent="1">
          <mxGeometry x="571" y="196" width="79" height="39" as="geometry" />
        </mxCell>
        <mxCell id="2-FnbDXYWDibML0f8TJd-231" value="" style="endArrow=none;html=1;rounded=0;strokeWidth=1;entryX=0;entryY=0.5;entryDx=0;entryDy=0;" edge="1" parent="1">
          <mxGeometry width="50" height="50" relative="1" as="geometry">
            <mxPoint x="540" y="215" as="sourcePoint" />
            <mxPoint x="573" y="215" as="targetPoint" />
          </mxGeometry>
        </mxCell>
        <mxCell id="2-FnbDXYWDibML0f8TJd-233" value="" style="endArrow=none;html=1;rounded=0;" edge="1" parent="1">
          <mxGeometry width="50" height="50" relative="1" as="geometry">
            <mxPoint x="861" y="237" as="sourcePoint" />
            <mxPoint x="1319" y="240" as="targetPoint" />
          </mxGeometry>
        </mxCell>
        <mxCell id="2-FnbDXYWDibML0f8TJd-234" value="" style="endArrow=classic;html=1;rounded=0;" edge="1" parent="1">
          <mxGeometry width="50" height="50" relative="1" as="geometry">
            <mxPoint x="1317" y="240" as="sourcePoint" />
            <mxPoint x="1317" y="276" as="targetPoint" />
          </mxGeometry>
        </mxCell>
        <mxCell id="2-FnbDXYWDibML0f8TJd-235" value="" style="endArrow=classic;html=1;rounded=0;entryX=0.5;entryY=0;entryDx=0;entryDy=0;" edge="1" target="2-FnbDXYWDibML0f8TJd-238" parent="1">
          <mxGeometry width="50" height="50" relative="1" as="geometry">
            <mxPoint x="862" y="236" as="sourcePoint" />
            <mxPoint x="862" y="269" as="targetPoint" />
          </mxGeometry>
        </mxCell>
        <mxCell id="2-FnbDXYWDibML0f8TJd-236" value="" style="endArrow=classic;html=1;rounded=0;" edge="1" parent="1">
          <mxGeometry width="50" height="50" relative="1" as="geometry">
            <mxPoint x="1033" y="238" as="sourcePoint" />
            <mxPoint x="1033" y="271" as="targetPoint" />
          </mxGeometry>
        </mxCell>
        <mxCell id="2-FnbDXYWDibML0f8TJd-237" style="edgeStyle=orthogonalEdgeStyle;rounded=0;orthogonalLoop=1;jettySize=auto;html=1;" edge="1" source="2-FnbDXYWDibML0f8TJd-238" parent="1">
          <mxGeometry relative="1" as="geometry">
            <mxPoint x="863" y="333" as="targetPoint" />
          </mxGeometry>
        </mxCell>
        <mxCell id="2-FnbDXYWDibML0f8TJd-238" value="&lt;b&gt;Header&lt;/b&gt;" style="rounded=0;whiteSpace=wrap;html=1;strokeColor=#d6b656;fillColor=#fff2cc;" vertex="1" parent="1">
          <mxGeometry x="823" y="270" width="79" height="39" as="geometry" />
        </mxCell>
        <mxCell id="2-FnbDXYWDibML0f8TJd-385" style="edgeStyle=orthogonalEdgeStyle;rounded=0;orthogonalLoop=1;jettySize=auto;html=1;strokeWidth=1;" edge="1" parent="1" source="2-FnbDXYWDibML0f8TJd-239">
          <mxGeometry relative="1" as="geometry">
            <mxPoint x="1156.2000122070312" y="334" as="targetPoint" />
          </mxGeometry>
        </mxCell>
        <mxCell id="2-FnbDXYWDibML0f8TJd-397" style="edgeStyle=orthogonalEdgeStyle;rounded=0;orthogonalLoop=1;jettySize=auto;html=1;strokeWidth=1;" edge="1" parent="1" source="2-FnbDXYWDibML0f8TJd-239">
          <mxGeometry relative="1" as="geometry">
            <mxPoint x="966" y="338" as="targetPoint" />
          </mxGeometry>
        </mxCell>
        <mxCell id="2-FnbDXYWDibML0f8TJd-399" style="edgeStyle=orthogonalEdgeStyle;rounded=0;orthogonalLoop=1;jettySize=auto;html=1;strokeWidth=1;" edge="1" parent="1" source="2-FnbDXYWDibML0f8TJd-239">
          <mxGeometry relative="1" as="geometry">
            <mxPoint x="1038" y="659" as="targetPoint" />
          </mxGeometry>
        </mxCell>
        <mxCell id="2-FnbDXYWDibML0f8TJd-239" value="Home" style="rounded=0;whiteSpace=wrap;html=1;strokeColor=#000000;" vertex="1" parent="1">
          <mxGeometry x="998" y="273" width="79" height="39" as="geometry" />
        </mxCell>
        <mxCell id="2-FnbDXYWDibML0f8TJd-240" value="Footer" style="rounded=0;whiteSpace=wrap;html=1;strokeColor=#000000;" vertex="1" parent="1">
          <mxGeometry x="1278" y="276" width="79" height="39" as="geometry" />
        </mxCell>
        <mxCell id="2-FnbDXYWDibML0f8TJd-242" value="Navbar" style="rounded=0;whiteSpace=wrap;html=1;strokeColor=#d6b656;fillColor=#fff2cc;" vertex="1" parent="1">
          <mxGeometry x="823" y="335" width="79" height="39" as="geometry" />
        </mxCell>
        <mxCell id="2-FnbDXYWDibML0f8TJd-243" value="logo" style="rounded=0;whiteSpace=wrap;html=1;strokeColor=#6c8ebf;fillColor=#dae8fc;" vertex="1" parent="1">
          <mxGeometry x="779" y="405" width="97" height="24" as="geometry" />
        </mxCell>
        <mxCell id="2-FnbDXYWDibML0f8TJd-244" value="site name" style="rounded=0;whiteSpace=wrap;html=1;strokeColor=#6c8ebf;fillColor=#dae8fc;" vertex="1" parent="1">
          <mxGeometry x="779" y="442" width="96" height="24" as="geometry" />
        </mxCell>
        <mxCell id="2-FnbDXYWDibML0f8TJd-245" value="" style="endArrow=none;html=1;rounded=0;strokeWidth=1;" edge="1" parent="1">
          <mxGeometry width="50" height="50" relative="1" as="geometry">
            <mxPoint x="759" y="569" as="sourcePoint" />
            <mxPoint x="759" y="352" as="targetPoint" />
          </mxGeometry>
        </mxCell>
        <mxCell id="2-FnbDXYWDibML0f8TJd-246" value="" style="endArrow=classic;html=1;rounded=0;strokeWidth=1;" edge="1" parent="1">
          <mxGeometry width="50" height="50" relative="1" as="geometry">
            <mxPoint x="760" y="453" as="sourcePoint" />
            <mxPoint x="779" y="453" as="targetPoint" />
          </mxGeometry>
        </mxCell>
        <mxCell id="2-FnbDXYWDibML0f8TJd-247" value="admin link" style="rounded=0;whiteSpace=wrap;html=1;strokeColor=#6c8ebf;fillColor=#dae8fc;" vertex="1" parent="1">
          <mxGeometry x="780" y="479" width="96" height="24" as="geometry" />
        </mxCell>
        <mxCell id="2-FnbDXYWDibML0f8TJd-312" style="edgeStyle=orthogonalEdgeStyle;rounded=0;orthogonalLoop=1;jettySize=auto;html=1;strokeWidth=1;" edge="1" parent="1" source="2-FnbDXYWDibML0f8TJd-248">
          <mxGeometry relative="1" as="geometry">
            <mxPoint x="711.5625915527344" y="627.5694580078125" as="targetPoint" />
          </mxGeometry>
        </mxCell>
        <mxCell id="2-FnbDXYWDibML0f8TJd-248" value="cart link" style="rounded=0;whiteSpace=wrap;html=1;strokeColor=#6c8ebf;fillColor=#dae8fc;" vertex="1" parent="1">
          <mxGeometry x="780" y="516" width="96" height="24" as="geometry" />
        </mxCell>
        <mxCell id="2-FnbDXYWDibML0f8TJd-249" value="cart icon" style="rounded=0;whiteSpace=wrap;html=1;strokeColor=#6c8ebf;fillColor=#dae8fc;" vertex="1" parent="1">
          <mxGeometry x="779" y="556" width="101" height="24" as="geometry" />
        </mxCell>
        <mxCell id="2-FnbDXYWDibML0f8TJd-250" value="" style="endArrow=classic;html=1;rounded=0;strokeWidth=1;entryX=0;entryY=0.5;entryDx=0;entryDy=0;" edge="1" target="2-FnbDXYWDibML0f8TJd-247" parent="1">
          <mxGeometry width="50" height="50" relative="1" as="geometry">
            <mxPoint x="758" y="490.5" as="sourcePoint" />
            <mxPoint x="777" y="491.5" as="targetPoint" />
          </mxGeometry>
        </mxCell>
        <mxCell id="2-FnbDXYWDibML0f8TJd-251" value="" style="endArrow=classic;html=1;rounded=0;strokeWidth=1;entryX=0;entryY=0.5;entryDx=0;entryDy=0;" edge="1" parent="1">
          <mxGeometry width="50" height="50" relative="1" as="geometry">
            <mxPoint x="758" y="529" as="sourcePoint" />
            <mxPoint x="779" y="528.5" as="targetPoint" />
          </mxGeometry>
        </mxCell>
        <mxCell id="2-FnbDXYWDibML0f8TJd-252" value="" style="endArrow=classic;html=1;rounded=0;strokeWidth=1;" edge="1" parent="1">
          <mxGeometry width="50" height="50" relative="1" as="geometry">
            <mxPoint x="760" y="568" as="sourcePoint" />
            <mxPoint x="779" y="568" as="targetPoint" />
          </mxGeometry>
        </mxCell>
        <mxCell id="2-FnbDXYWDibML0f8TJd-253" value="" style="endArrow=none;html=1;rounded=0;strokeWidth=1;" edge="1" parent="1">
          <mxGeometry width="50" height="50" relative="1" as="geometry">
            <mxPoint x="760" y="353" as="sourcePoint" />
            <mxPoint x="823" y="353" as="targetPoint" />
          </mxGeometry>
        </mxCell>
        <mxCell id="2-FnbDXYWDibML0f8TJd-254" value="" style="endArrow=classic;html=1;rounded=0;strokeWidth=1;" edge="1" parent="1">
          <mxGeometry width="50" height="50" relative="1" as="geometry">
            <mxPoint x="760" y="416.5" as="sourcePoint" />
            <mxPoint x="779" y="416.5" as="targetPoint" />
          </mxGeometry>
        </mxCell>
        <mxCell id="2-FnbDXYWDibML0f8TJd-318" style="edgeStyle=orthogonalEdgeStyle;rounded=0;orthogonalLoop=1;jettySize=auto;html=1;entryX=1;entryY=0.5;entryDx=0;entryDy=0;strokeWidth=1;" edge="1" parent="1" source="2-FnbDXYWDibML0f8TJd-255" target="2-FnbDXYWDibML0f8TJd-310">
          <mxGeometry relative="1" as="geometry" />
        </mxCell>
        <mxCell id="2-FnbDXYWDibML0f8TJd-255" value="Cart" style="rounded=0;whiteSpace=wrap;html=1;strokeColor=#000000;" vertex="1" parent="1">
          <mxGeometry x="680" y="629" width="96" height="35" as="geometry" />
        </mxCell>
        <mxCell id="2-FnbDXYWDibML0f8TJd-256" value="title" style="rounded=0;whiteSpace=wrap;html=1;strokeColor=#6c8ebf;fillColor=#dae8fc;" vertex="1" parent="1">
          <mxGeometry x="671" y="702" width="97" height="24" as="geometry" />
        </mxCell>
        <mxCell id="2-FnbDXYWDibML0f8TJd-257" value="Orders Table" style="rounded=0;whiteSpace=wrap;html=1;strokeColor=#6c8ebf;fillColor=#dae8fc;" vertex="1" parent="1">
          <mxGeometry x="671" y="739" width="96" height="24" as="geometry" />
        </mxCell>
        <mxCell id="2-FnbDXYWDibML0f8TJd-258" value="" style="endArrow=none;html=1;rounded=0;strokeWidth=1;" edge="1" parent="1">
          <mxGeometry width="50" height="50" relative="1" as="geometry">
            <mxPoint x="651" y="866" as="sourcePoint" />
            <mxPoint x="651" y="648" as="targetPoint" />
          </mxGeometry>
        </mxCell>
        <mxCell id="2-FnbDXYWDibML0f8TJd-259" value="" style="endArrow=classic;html=1;rounded=0;strokeWidth=1;" edge="1" parent="1">
          <mxGeometry width="50" height="50" relative="1" as="geometry">
            <mxPoint x="652" y="750" as="sourcePoint" />
            <mxPoint x="671" y="750" as="targetPoint" />
          </mxGeometry>
        </mxCell>
        <mxCell id="2-FnbDXYWDibML0f8TJd-260" value="total" style="rounded=0;whiteSpace=wrap;html=1;strokeColor=#6c8ebf;fillColor=#dae8fc;" vertex="1" parent="1">
          <mxGeometry x="672" y="776" width="96" height="24" as="geometry" />
        </mxCell>
        <mxCell id="2-FnbDXYWDibML0f8TJd-261" value="Delete Modal" style="rounded=0;whiteSpace=wrap;html=1;strokeColor=#6c8ebf;fillColor=#dae8fc;" vertex="1" parent="1">
          <mxGeometry x="672" y="813" width="112" height="24" as="geometry" />
        </mxCell>
        <mxCell id="2-FnbDXYWDibML0f8TJd-262" value="" style="endArrow=classic;html=1;rounded=0;strokeWidth=1;entryX=0;entryY=0.5;entryDx=0;entryDy=0;" edge="1" target="2-FnbDXYWDibML0f8TJd-260" parent="1">
          <mxGeometry width="50" height="50" relative="1" as="geometry">
            <mxPoint x="650" y="787.5" as="sourcePoint" />
            <mxPoint x="669" y="788.5" as="targetPoint" />
          </mxGeometry>
        </mxCell>
        <mxCell id="2-FnbDXYWDibML0f8TJd-263" value="" style="endArrow=classic;html=1;rounded=0;strokeWidth=1;entryX=0;entryY=0.5;entryDx=0;entryDy=0;" edge="1" parent="1">
          <mxGeometry width="50" height="50" relative="1" as="geometry">
            <mxPoint x="650" y="826" as="sourcePoint" />
            <mxPoint x="671" y="825.5" as="targetPoint" />
          </mxGeometry>
        </mxCell>
        <mxCell id="2-FnbDXYWDibML0f8TJd-264" value="" style="endArrow=classic;html=1;rounded=0;strokeWidth=1;" edge="1" parent="1">
          <mxGeometry width="50" height="50" relative="1" as="geometry">
            <mxPoint x="652" y="865" as="sourcePoint" />
            <mxPoint x="671" y="865" as="targetPoint" />
          </mxGeometry>
        </mxCell>
        <mxCell id="2-FnbDXYWDibML0f8TJd-266" value="" style="endArrow=classic;html=1;rounded=0;strokeWidth=1;" edge="1" parent="1">
          <mxGeometry width="50" height="50" relative="1" as="geometry">
            <mxPoint x="652" y="713.5" as="sourcePoint" />
            <mxPoint x="671" y="713.5" as="targetPoint" />
          </mxGeometry>
        </mxCell>
        <mxCell id="2-FnbDXYWDibML0f8TJd-268" value="Finalize button" style="rounded=0;whiteSpace=wrap;html=1;strokeColor=#6c8ebf;fillColor=#dae8fc;" vertex="1" parent="1">
          <mxGeometry x="671" y="857" width="112" height="33" as="geometry" />
        </mxCell>
        <mxCell id="2-FnbDXYWDibML0f8TJd-281" value="title" style="rounded=0;whiteSpace=wrap;html=1;strokeColor=#6c8ebf;fillColor=#dae8fc;" vertex="1" parent="1">
          <mxGeometry x="633" y="920" width="97" height="24" as="geometry" />
        </mxCell>
        <mxCell id="2-FnbDXYWDibML0f8TJd-282" value="customer name" style="rounded=0;whiteSpace=wrap;html=1;strokeColor=#6c8ebf;fillColor=#dae8fc;" vertex="1" parent="1">
          <mxGeometry x="633" y="957" width="96" height="24" as="geometry" />
        </mxCell>
        <mxCell id="2-FnbDXYWDibML0f8TJd-283" value="" style="endArrow=classic;html=1;rounded=0;strokeWidth=1;" edge="1" parent="1">
          <mxGeometry width="50" height="50" relative="1" as="geometry">
            <mxPoint x="614" y="968" as="sourcePoint" />
            <mxPoint x="633" y="968" as="targetPoint" />
          </mxGeometry>
        </mxCell>
        <mxCell id="2-FnbDXYWDibML0f8TJd-284" value="address" style="rounded=0;whiteSpace=wrap;html=1;strokeColor=#6c8ebf;fillColor=#dae8fc;" vertex="1" parent="1">
          <mxGeometry x="634" y="994" width="96" height="24" as="geometry" />
        </mxCell>
        <mxCell id="2-FnbDXYWDibML0f8TJd-285" value="mobile number" style="rounded=0;whiteSpace=wrap;html=1;strokeColor=#6c8ebf;fillColor=#dae8fc;" vertex="1" parent="1">
          <mxGeometry x="634" y="1031" width="96" height="24" as="geometry" />
        </mxCell>
        <mxCell id="2-FnbDXYWDibML0f8TJd-286" value="" style="endArrow=classic;html=1;rounded=0;strokeWidth=1;entryX=0;entryY=0.5;entryDx=0;entryDy=0;" edge="1" target="2-FnbDXYWDibML0f8TJd-284" parent="1">
          <mxGeometry width="50" height="50" relative="1" as="geometry">
            <mxPoint x="612" y="1005.5" as="sourcePoint" />
            <mxPoint x="631" y="1006.5" as="targetPoint" />
          </mxGeometry>
        </mxCell>
        <mxCell id="2-FnbDXYWDibML0f8TJd-287" value="" style="endArrow=classic;html=1;rounded=0;strokeWidth=1;entryX=0;entryY=0.5;entryDx=0;entryDy=0;" edge="1" parent="1">
          <mxGeometry width="50" height="50" relative="1" as="geometry">
            <mxPoint x="612" y="1044" as="sourcePoint" />
            <mxPoint x="633" y="1043.5" as="targetPoint" />
          </mxGeometry>
        </mxCell>
        <mxCell id="2-FnbDXYWDibML0f8TJd-288" value="" style="endArrow=classic;html=1;rounded=0;strokeWidth=1;" edge="1" parent="1">
          <mxGeometry width="50" height="50" relative="1" as="geometry">
            <mxPoint x="614" y="1083" as="sourcePoint" />
            <mxPoint x="633" y="1083" as="targetPoint" />
          </mxGeometry>
        </mxCell>
        <mxCell id="2-FnbDXYWDibML0f8TJd-289" value="" style="endArrow=classic;html=1;rounded=0;strokeWidth=1;" edge="1" parent="1">
          <mxGeometry width="50" height="50" relative="1" as="geometry">
            <mxPoint x="614" y="931.5" as="sourcePoint" />
            <mxPoint x="633" y="931.5" as="targetPoint" />
          </mxGeometry>
        </mxCell>
        <mxCell id="2-FnbDXYWDibML0f8TJd-290" value="delivery date" style="rounded=0;whiteSpace=wrap;html=1;strokeColor=#6c8ebf;fillColor=#dae8fc;" vertex="1" parent="1">
          <mxGeometry x="633" y="1075" width="96" height="24" as="geometry" />
        </mxCell>
        <mxCell id="2-FnbDXYWDibML0f8TJd-291" value="" style="endArrow=none;html=1;rounded=0;strokeWidth=1;" edge="1" parent="1">
          <mxGeometry width="50" height="50" relative="1" as="geometry">
            <mxPoint x="612" y="1129" as="sourcePoint" />
            <mxPoint x="612" y="872" as="targetPoint" />
          </mxGeometry>
        </mxCell>
        <mxCell id="2-FnbDXYWDibML0f8TJd-292" value="Payment button" style="rounded=0;whiteSpace=wrap;html=1;strokeColor=#6c8ebf;fillColor=#dae8fc;" vertex="1" parent="1">
          <mxGeometry x="634" y="1119" width="97" height="42" as="geometry" />
        </mxCell>
        <mxCell id="2-FnbDXYWDibML0f8TJd-294" value="" style="endArrow=classic;html=1;rounded=0;strokeWidth=1;entryX=0;entryY=0.5;entryDx=0;entryDy=0;" edge="1" parent="1">
          <mxGeometry width="50" height="50" relative="1" as="geometry">
            <mxPoint x="613" y="1128.5" as="sourcePoint" />
            <mxPoint x="634" y="1128" as="targetPoint" />
          </mxGeometry>
        </mxCell>
        <mxCell id="2-FnbDXYWDibML0f8TJd-295" value="" style="endArrow=none;html=1;rounded=0;strokeWidth=1;" edge="1" parent="1">
          <mxGeometry width="50" height="50" relative="1" as="geometry">
            <mxPoint x="613" y="873" as="sourcePoint" />
            <mxPoint x="671" y="873" as="targetPoint" />
          </mxGeometry>
        </mxCell>
        <mxCell id="2-FnbDXYWDibML0f8TJd-310" value="payment result-success" style="rounded=0;whiteSpace=wrap;html=1;strokeColor=#d6b656;fillColor=#fff2cc;" vertex="1" parent="1">
          <mxGeometry x="806" y="670" width="96" height="40" as="geometry" />
        </mxCell>
        <mxCell id="2-FnbDXYWDibML0f8TJd-311" value="payment result-fail" style="rounded=0;whiteSpace=wrap;html=1;strokeColor=#d6b656;fillColor=#fff2cc;" vertex="1" parent="1">
          <mxGeometry x="806" y="720.5" width="96" height="39.5" as="geometry" />
        </mxCell>
        <mxCell id="2-FnbDXYWDibML0f8TJd-314" value="" style="endArrow=none;html=1;rounded=0;strokeWidth=1;" edge="1" parent="1">
          <mxGeometry width="50" height="50" relative="1" as="geometry">
            <mxPoint x="652" y="648" as="sourcePoint" />
            <mxPoint x="680" y="648" as="targetPoint" />
          </mxGeometry>
        </mxCell>
        <mxCell id="2-FnbDXYWDibML0f8TJd-316" value="" style="endArrow=none;html=1;rounded=0;strokeWidth=1;" edge="1" parent="1">
          <mxGeometry width="50" height="50" relative="1" as="geometry">
            <mxPoint x="922" y="690" as="sourcePoint" />
            <mxPoint x="922" y="743" as="targetPoint" />
          </mxGeometry>
        </mxCell>
        <mxCell id="2-FnbDXYWDibML0f8TJd-321" value="" style="endArrow=classic;html=1;rounded=0;strokeWidth=1;" edge="1" parent="1">
          <mxGeometry width="50" height="50" relative="1" as="geometry">
            <mxPoint x="921" y="743" as="sourcePoint" />
            <mxPoint x="902" y="743" as="targetPoint" />
          </mxGeometry>
        </mxCell>
        <mxCell id="2-FnbDXYWDibML0f8TJd-323" value="Payment Gateway" style="rounded=0;whiteSpace=wrap;html=1;strokeColor=#82b366;fillColor=#d5e8d4;" vertex="1" parent="1">
          <mxGeometry x="1064" y="129" width="96" height="35" as="geometry" />
        </mxCell>
        <mxCell id="2-FnbDXYWDibML0f8TJd-324" value="Categories" style="rounded=0;whiteSpace=wrap;html=1;strokeColor=#000000;" vertex="1" parent="1">
          <mxGeometry x="948" y="340" width="79" height="39" as="geometry" />
        </mxCell>
        <mxCell id="2-FnbDXYWDibML0f8TJd-347" value="about us" style="rounded=0;whiteSpace=wrap;html=1;strokeColor=#6c8ebf;fillColor=#dae8fc;" vertex="1" parent="1">
          <mxGeometry x="1264" y="333.5" width="97" height="24" as="geometry" />
        </mxCell>
        <mxCell id="2-FnbDXYWDibML0f8TJd-348" value="contact us links" style="rounded=0;whiteSpace=wrap;html=1;strokeColor=#6c8ebf;fillColor=#dae8fc;" vertex="1" parent="1">
          <mxGeometry x="1264" y="370.5" width="96" height="24" as="geometry" />
        </mxCell>
        <mxCell id="2-FnbDXYWDibML0f8TJd-349" value="" style="endArrow=none;html=1;rounded=0;strokeWidth=1;" edge="1" parent="1">
          <mxGeometry width="50" height="50" relative="1" as="geometry">
            <mxPoint x="1245" y="457" as="sourcePoint" />
            <mxPoint x="1245" y="292.5" as="targetPoint" />
          </mxGeometry>
        </mxCell>
        <mxCell id="2-FnbDXYWDibML0f8TJd-350" value="" style="endArrow=classic;html=1;rounded=0;strokeWidth=1;" edge="1" parent="1">
          <mxGeometry width="50" height="50" relative="1" as="geometry">
            <mxPoint x="1245" y="381.5" as="sourcePoint" />
            <mxPoint x="1264" y="381.5" as="targetPoint" />
          </mxGeometry>
        </mxCell>
        <mxCell id="2-FnbDXYWDibML0f8TJd-351" value="copy right" style="rounded=0;whiteSpace=wrap;html=1;strokeColor=#6c8ebf;fillColor=#dae8fc;" vertex="1" parent="1">
          <mxGeometry x="1265" y="407.5" width="96" height="24" as="geometry" />
        </mxCell>
        <mxCell id="2-FnbDXYWDibML0f8TJd-352" value="back to top" style="rounded=0;whiteSpace=wrap;html=1;strokeColor=#6c8ebf;fillColor=#dae8fc;" vertex="1" parent="1">
          <mxGeometry x="1265" y="444.5" width="96" height="24" as="geometry" />
        </mxCell>
        <mxCell id="2-FnbDXYWDibML0f8TJd-354" value="" style="endArrow=classic;html=1;rounded=0;strokeWidth=1;" edge="1" parent="1">
          <mxGeometry width="50" height="50" relative="1" as="geometry">
            <mxPoint x="1246" y="344.5" as="sourcePoint" />
            <mxPoint x="1265" y="344.5" as="targetPoint" />
          </mxGeometry>
        </mxCell>
        <mxCell id="2-FnbDXYWDibML0f8TJd-355" value="" style="endArrow=classic;html=1;rounded=0;strokeWidth=1;" edge="1" parent="1">
          <mxGeometry width="50" height="50" relative="1" as="geometry">
            <mxPoint x="1246" y="419" as="sourcePoint" />
            <mxPoint x="1265" y="419" as="targetPoint" />
          </mxGeometry>
        </mxCell>
        <mxCell id="2-FnbDXYWDibML0f8TJd-357" value="" style="endArrow=none;html=1;rounded=0;strokeWidth=1;entryX=0;entryY=0.5;entryDx=0;entryDy=0;" edge="1" parent="1">
          <mxGeometry width="50" height="50" relative="1" as="geometry">
            <mxPoint x="1245" y="294.5" as="sourcePoint" />
            <mxPoint x="1278" y="294.5" as="targetPoint" />
          </mxGeometry>
        </mxCell>
        <mxCell id="2-FnbDXYWDibML0f8TJd-358" value="" style="endArrow=classic;html=1;rounded=0;strokeWidth=1;" edge="1" parent="1">
          <mxGeometry width="50" height="50" relative="1" as="geometry">
            <mxPoint x="1246" y="457" as="sourcePoint" />
            <mxPoint x="1265" y="457" as="targetPoint" />
          </mxGeometry>
        </mxCell>
        <mxCell id="2-FnbDXYWDibML0f8TJd-361" value="titles links" style="rounded=0;whiteSpace=wrap;html=1;strokeColor=#6c8ebf;fillColor=#dae8fc;" vertex="1" parent="1">
          <mxGeometry x="932" y="398" width="97" height="24" as="geometry" />
        </mxCell>
        <mxCell id="2-FnbDXYWDibML0f8TJd-362" value="Categories Cards" style="rounded=0;whiteSpace=wrap;html=1;strokeColor=#6c8ebf;fillColor=#dae8fc;" vertex="1" parent="1">
          <mxGeometry x="932" y="435" width="96" height="24" as="geometry" />
        </mxCell>
        <mxCell id="2-FnbDXYWDibML0f8TJd-363" value="" style="endArrow=none;html=1;rounded=0;strokeWidth=1;" edge="1" parent="1">
          <mxGeometry width="50" height="50" relative="1" as="geometry">
            <mxPoint x="913" y="447" as="sourcePoint" />
            <mxPoint x="913" y="357" as="targetPoint" />
          </mxGeometry>
        </mxCell>
        <mxCell id="2-FnbDXYWDibML0f8TJd-364" value="" style="endArrow=classic;html=1;rounded=0;strokeWidth=1;" edge="1" parent="1">
          <mxGeometry width="50" height="50" relative="1" as="geometry">
            <mxPoint x="913" y="446" as="sourcePoint" />
            <mxPoint x="932" y="446" as="targetPoint" />
          </mxGeometry>
        </mxCell>
        <mxCell id="2-FnbDXYWDibML0f8TJd-367" value="" style="endArrow=classic;html=1;rounded=0;strokeWidth=1;" edge="1" parent="1">
          <mxGeometry width="50" height="50" relative="1" as="geometry">
            <mxPoint x="914" y="409" as="sourcePoint" />
            <mxPoint x="933" y="409" as="targetPoint" />
          </mxGeometry>
        </mxCell>
        <mxCell id="2-FnbDXYWDibML0f8TJd-369" value="" style="endArrow=none;html=1;rounded=0;strokeWidth=1;entryX=0;entryY=0.5;entryDx=0;entryDy=0;" edge="1" parent="1">
          <mxGeometry width="50" height="50" relative="1" as="geometry">
            <mxPoint x="913" y="359" as="sourcePoint" />
            <mxPoint x="946" y="359" as="targetPoint" />
          </mxGeometry>
        </mxCell>
        <mxCell id="2-FnbDXYWDibML0f8TJd-376" value="image" style="rounded=0;whiteSpace=wrap;html=1;strokeColor=#6c8ebf;fillColor=#dae8fc;" vertex="1" parent="1">
          <mxGeometry x="1104" y="538" width="97" height="24" as="geometry" />
        </mxCell>
        <mxCell id="2-FnbDXYWDibML0f8TJd-377" value="name" style="rounded=0;whiteSpace=wrap;html=1;strokeColor=#6c8ebf;fillColor=#dae8fc;" vertex="1" parent="1">
          <mxGeometry x="1104" y="575" width="96" height="24" as="geometry" />
        </mxCell>
        <mxCell id="2-FnbDXYWDibML0f8TJd-378" value="" style="endArrow=none;html=1;rounded=0;strokeWidth=1;" edge="1" parent="1">
          <mxGeometry width="50" height="50" relative="1" as="geometry">
            <mxPoint x="1085" y="627" as="sourcePoint" />
            <mxPoint x="1085" y="497" as="targetPoint" />
          </mxGeometry>
        </mxCell>
        <mxCell id="2-FnbDXYWDibML0f8TJd-379" value="" style="endArrow=classic;html=1;rounded=0;strokeWidth=1;" edge="1" parent="1">
          <mxGeometry width="50" height="50" relative="1" as="geometry">
            <mxPoint x="1085" y="586" as="sourcePoint" />
            <mxPoint x="1104" y="586" as="targetPoint" />
          </mxGeometry>
        </mxCell>
        <mxCell id="2-FnbDXYWDibML0f8TJd-380" value="" style="endArrow=classic;html=1;rounded=0;strokeWidth=1;" edge="1" parent="1">
          <mxGeometry width="50" height="50" relative="1" as="geometry">
            <mxPoint x="1086" y="549" as="sourcePoint" />
            <mxPoint x="1105" y="549" as="targetPoint" />
          </mxGeometry>
        </mxCell>
        <mxCell id="2-FnbDXYWDibML0f8TJd-381" value="" style="endArrow=none;html=1;rounded=0;strokeWidth=1;entryX=0;entryY=0.5;entryDx=0;entryDy=0;" edge="1" parent="1">
          <mxGeometry width="50" height="50" relative="1" as="geometry">
            <mxPoint x="1085" y="499" as="sourcePoint" />
            <mxPoint x="1118" y="499" as="targetPoint" />
          </mxGeometry>
        </mxCell>
        <mxCell id="2-FnbDXYWDibML0f8TJd-382" value="price" style="rounded=0;whiteSpace=wrap;html=1;strokeColor=#6c8ebf;fillColor=#dae8fc;" vertex="1" parent="1">
          <mxGeometry x="1104" y="615" width="96" height="24" as="geometry" />
        </mxCell>
        <mxCell id="2-FnbDXYWDibML0f8TJd-383" value="" style="endArrow=classic;html=1;rounded=0;strokeWidth=1;" edge="1" parent="1">
          <mxGeometry width="50" height="50" relative="1" as="geometry">
            <mxPoint x="1085" y="627" as="sourcePoint" />
            <mxPoint x="1104" y="627" as="targetPoint" />
          </mxGeometry>
        </mxCell>
        <mxCell id="2-FnbDXYWDibML0f8TJd-384" value="Category" style="rounded=0;whiteSpace=wrap;html=1;strokeColor=#000000;" vertex="1" parent="1">
          <mxGeometry x="1114" y="335" width="79" height="39" as="geometry" />
        </mxCell>
        <mxCell id="2-FnbDXYWDibML0f8TJd-386" value="Sidebar" style="rounded=0;whiteSpace=wrap;html=1;strokeColor=#6c8ebf;fillColor=#dae8fc;" vertex="1" parent="1">
          <mxGeometry x="1117" y="400" width="97" height="24" as="geometry" />
        </mxCell>
        <mxCell id="2-FnbDXYWDibML0f8TJd-387" value="title" style="rounded=0;whiteSpace=wrap;html=1;strokeColor=#6c8ebf;fillColor=#dae8fc;" vertex="1" parent="1">
          <mxGeometry x="1117" y="437" width="96" height="24" as="geometry" />
        </mxCell>
        <mxCell id="2-FnbDXYWDibML0f8TJd-388" value="" style="endArrow=classic;html=1;rounded=0;strokeWidth=1;" edge="1" parent="1">
          <mxGeometry width="50" height="50" relative="1" as="geometry">
            <mxPoint x="1098" y="448" as="sourcePoint" />
            <mxPoint x="1117" y="448" as="targetPoint" />
          </mxGeometry>
        </mxCell>
        <mxCell id="2-FnbDXYWDibML0f8TJd-389" value="" style="endArrow=classic;html=1;rounded=0;strokeWidth=1;" edge="1" parent="1">
          <mxGeometry width="50" height="50" relative="1" as="geometry">
            <mxPoint x="1099" y="411" as="sourcePoint" />
            <mxPoint x="1118" y="411" as="targetPoint" />
          </mxGeometry>
        </mxCell>
        <mxCell id="2-FnbDXYWDibML0f8TJd-390" value="Card" style="rounded=0;whiteSpace=wrap;html=1;strokeColor=#6c8ebf;fillColor=#dae8fc;" vertex="1" parent="1">
          <mxGeometry x="1117" y="477" width="96" height="24" as="geometry" />
        </mxCell>
        <mxCell id="2-FnbDXYWDibML0f8TJd-391" value="" style="endArrow=classic;html=1;rounded=0;strokeWidth=1;" edge="1" parent="1">
          <mxGeometry width="50" height="50" relative="1" as="geometry">
            <mxPoint x="1098" y="490.5" as="sourcePoint" />
            <mxPoint x="1117" y="490.5" as="targetPoint" />
          </mxGeometry>
        </mxCell>
        <mxCell id="2-FnbDXYWDibML0f8TJd-392" value="" style="endArrow=none;html=1;rounded=0;strokeWidth=1;" edge="1" parent="1">
          <mxGeometry width="50" height="50" relative="1" as="geometry">
            <mxPoint x="1097" y="491" as="sourcePoint" />
            <mxPoint x="1097" y="361" as="targetPoint" />
          </mxGeometry>
        </mxCell>
        <mxCell id="2-FnbDXYWDibML0f8TJd-394" value="" style="endArrow=none;html=1;rounded=0;strokeWidth=1;" edge="1" parent="1">
          <mxGeometry width="50" height="50" relative="1" as="geometry">
            <mxPoint x="1097" y="361" as="sourcePoint" />
            <mxPoint x="1115" y="361" as="targetPoint" />
          </mxGeometry>
        </mxCell>
        <mxCell id="2-FnbDXYWDibML0f8TJd-400" value="Product" style="rounded=0;whiteSpace=wrap;html=1;strokeColor=#000000;" vertex="1" parent="1">
          <mxGeometry x="1002" y="659" width="79" height="39" as="geometry" />
        </mxCell>
        <mxCell id="2-FnbDXYWDibML0f8TJd-401" value="image" style="rounded=0;whiteSpace=wrap;html=1;strokeColor=#6c8ebf;fillColor=#dae8fc;" vertex="1" parent="1">
          <mxGeometry x="988" y="716.5" width="97" height="24" as="geometry" />
        </mxCell>
        <mxCell id="2-FnbDXYWDibML0f8TJd-402" value="product name" style="rounded=0;whiteSpace=wrap;html=1;strokeColor=#6c8ebf;fillColor=#dae8fc;" vertex="1" parent="1">
          <mxGeometry x="988" y="753.5" width="96" height="24" as="geometry" />
        </mxCell>
        <mxCell id="2-FnbDXYWDibML0f8TJd-403" value="" style="endArrow=none;html=1;rounded=0;strokeWidth=1;" edge="1" parent="1">
          <mxGeometry width="50" height="50" relative="1" as="geometry">
            <mxPoint x="969" y="840" as="sourcePoint" />
            <mxPoint x="969" y="675.5" as="targetPoint" />
          </mxGeometry>
        </mxCell>
        <mxCell id="2-FnbDXYWDibML0f8TJd-404" value="" style="endArrow=classic;html=1;rounded=0;strokeWidth=1;" edge="1" parent="1">
          <mxGeometry width="50" height="50" relative="1" as="geometry">
            <mxPoint x="969" y="764.5" as="sourcePoint" />
            <mxPoint x="988" y="764.5" as="targetPoint" />
          </mxGeometry>
        </mxCell>
        <mxCell id="2-FnbDXYWDibML0f8TJd-405" value="category name" style="rounded=0;whiteSpace=wrap;html=1;strokeColor=#6c8ebf;fillColor=#dae8fc;" vertex="1" parent="1">
          <mxGeometry x="989" y="790.5" width="96" height="24" as="geometry" />
        </mxCell>
        <mxCell id="2-FnbDXYWDibML0f8TJd-406" value="price" style="rounded=0;whiteSpace=wrap;html=1;strokeColor=#6c8ebf;fillColor=#dae8fc;" vertex="1" parent="1">
          <mxGeometry x="989" y="827.5" width="96" height="24" as="geometry" />
        </mxCell>
        <mxCell id="2-FnbDXYWDibML0f8TJd-407" value="" style="endArrow=classic;html=1;rounded=0;strokeWidth=1;" edge="1" parent="1">
          <mxGeometry width="50" height="50" relative="1" as="geometry">
            <mxPoint x="970" y="727.5" as="sourcePoint" />
            <mxPoint x="989" y="727.5" as="targetPoint" />
          </mxGeometry>
        </mxCell>
        <mxCell id="2-FnbDXYWDibML0f8TJd-408" value="" style="endArrow=classic;html=1;rounded=0;strokeWidth=1;" edge="1" parent="1">
          <mxGeometry width="50" height="50" relative="1" as="geometry">
            <mxPoint x="970" y="802" as="sourcePoint" />
            <mxPoint x="989" y="802" as="targetPoint" />
          </mxGeometry>
        </mxCell>
        <mxCell id="2-FnbDXYWDibML0f8TJd-409" value="" style="endArrow=none;html=1;rounded=0;strokeWidth=1;entryX=0;entryY=0.5;entryDx=0;entryDy=0;" edge="1" parent="1">
          <mxGeometry width="50" height="50" relative="1" as="geometry">
            <mxPoint x="969" y="677.5" as="sourcePoint" />
            <mxPoint x="1002" y="677.5" as="targetPoint" />
          </mxGeometry>
        </mxCell>
        <mxCell id="2-FnbDXYWDibML0f8TJd-410" value="" style="endArrow=classic;html=1;rounded=0;strokeWidth=1;" edge="1" parent="1">
          <mxGeometry width="50" height="50" relative="1" as="geometry">
            <mxPoint x="970" y="840" as="sourcePoint" />
            <mxPoint x="989" y="840" as="targetPoint" />
          </mxGeometry>
        </mxCell>
        <mxCell id="2-FnbDXYWDibML0f8TJd-411" value="increase/decrease&lt;br&gt;buttons" style="rounded=0;whiteSpace=wrap;html=1;strokeColor=#6c8ebf;fillColor=#dae8fc;" vertex="1" parent="1">
          <mxGeometry x="988" y="861" width="114" height="33.5" as="geometry" />
        </mxCell>
        <mxCell id="2-FnbDXYWDibML0f8TJd-412" value="add to cart button" style="rounded=0;whiteSpace=wrap;html=1;strokeColor=#6c8ebf;fillColor=#dae8fc;" vertex="1" parent="1">
          <mxGeometry x="988" y="901.5" width="105" height="24" as="geometry" />
        </mxCell>
        <mxCell id="2-FnbDXYWDibML0f8TJd-413" value="" style="endArrow=classic;html=1;rounded=0;strokeWidth=1;" edge="1" parent="1">
          <mxGeometry width="50" height="50" relative="1" as="geometry">
            <mxPoint x="969" y="912.5" as="sourcePoint" />
            <mxPoint x="988" y="912.5" as="targetPoint" />
          </mxGeometry>
        </mxCell>
        <mxCell id="2-FnbDXYWDibML0f8TJd-414" value="description" style="rounded=0;whiteSpace=wrap;html=1;strokeColor=#6c8ebf;fillColor=#dae8fc;" vertex="1" parent="1">
          <mxGeometry x="989" y="938.5" width="96" height="24" as="geometry" />
        </mxCell>
        <mxCell id="2-FnbDXYWDibML0f8TJd-415" value="other introduction features" style="rounded=0;whiteSpace=wrap;html=1;strokeColor=#6c8ebf;fillColor=#dae8fc;" vertex="1" parent="1">
          <mxGeometry x="989.5" y="972" width="96" height="42.5" as="geometry" />
        </mxCell>
        <mxCell id="2-FnbDXYWDibML0f8TJd-416" value="" style="endArrow=classic;html=1;rounded=0;strokeWidth=1;" edge="1" parent="1">
          <mxGeometry width="50" height="50" relative="1" as="geometry">
            <mxPoint x="970" y="875.5" as="sourcePoint" />
            <mxPoint x="989" y="875.5" as="targetPoint" />
          </mxGeometry>
        </mxCell>
        <mxCell id="2-FnbDXYWDibML0f8TJd-417" value="" style="endArrow=classic;html=1;rounded=0;strokeWidth=1;" edge="1" parent="1">
          <mxGeometry width="50" height="50" relative="1" as="geometry">
            <mxPoint x="970" y="950" as="sourcePoint" />
            <mxPoint x="989" y="950" as="targetPoint" />
          </mxGeometry>
        </mxCell>
        <mxCell id="2-FnbDXYWDibML0f8TJd-418" value="" style="endArrow=classic;html=1;rounded=0;strokeWidth=1;" edge="1" parent="1">
          <mxGeometry width="50" height="50" relative="1" as="geometry">
            <mxPoint x="970" y="988" as="sourcePoint" />
            <mxPoint x="989" y="988" as="targetPoint" />
          </mxGeometry>
        </mxCell>
        <mxCell id="2-FnbDXYWDibML0f8TJd-419" value="" style="endArrow=none;html=1;rounded=0;strokeWidth=1;" edge="1" parent="1">
          <mxGeometry width="50" height="50" relative="1" as="geometry">
            <mxPoint x="969" y="989" as="sourcePoint" />
            <mxPoint x="969" y="837" as="targetPoint" />
          </mxGeometry>
        </mxCell>
        <mxCell id="2-FnbDXYWDibML0f8TJd-423" value="" style="endArrow=none;html=1;rounded=0;" edge="1" parent="1">
          <mxGeometry width="50" height="50" relative="1" as="geometry">
            <mxPoint x="281" y="66" as="sourcePoint" />
            <mxPoint x="1112" y="72" as="targetPoint" />
          </mxGeometry>
        </mxCell>
        <mxCell id="2-FnbDXYWDibML0f8TJd-424" value="" style="endArrow=classic;html=1;rounded=0;" edge="1" parent="1">
          <mxGeometry width="50" height="50" relative="1" as="geometry">
            <mxPoint x="941" y="71" as="sourcePoint" />
            <mxPoint x="941" y="128" as="targetPoint" />
          </mxGeometry>
        </mxCell>
        <mxCell id="2-FnbDXYWDibML0f8TJd-425" value="" style="endArrow=classic;html=1;rounded=0;" edge="1" parent="1">
          <mxGeometry width="50" height="50" relative="1" as="geometry">
            <mxPoint x="280" y="65" as="sourcePoint" />
            <mxPoint x="280" y="115" as="targetPoint" />
          </mxGeometry>
        </mxCell>
        <mxCell id="2-FnbDXYWDibML0f8TJd-426" value="" style="endArrow=classic;html=1;rounded=0;entryX=0.5;entryY=0;entryDx=0;entryDy=0;" edge="1" parent="1" target="2-FnbDXYWDibML0f8TJd-192">
          <mxGeometry width="50" height="50" relative="1" as="geometry">
            <mxPoint x="610.5" y="68" as="sourcePoint" />
            <mxPoint x="610.5" y="101" as="targetPoint" />
          </mxGeometry>
        </mxCell>
        <mxCell id="2-FnbDXYWDibML0f8TJd-430" value="&lt;b&gt;Home&lt;/b&gt;" style="rounded=0;whiteSpace=wrap;html=1;strokeColor=#d6b656;fillColor=#fff2cc;" vertex="1" parent="1">
          <mxGeometry x="998" y="273" width="79" height="39" as="geometry" />
        </mxCell>
        <mxCell id="2-FnbDXYWDibML0f8TJd-431" value="Categories" style="rounded=0;whiteSpace=wrap;html=1;strokeColor=#d6b656;fillColor=#fff2cc;" vertex="1" parent="1">
          <mxGeometry x="948" y="340" width="79" height="39" as="geometry" />
        </mxCell>
        <mxCell id="2-FnbDXYWDibML0f8TJd-432" value="Category" style="rounded=0;whiteSpace=wrap;html=1;strokeColor=#d6b656;fillColor=#fff2cc;" vertex="1" parent="1">
          <mxGeometry x="1114" y="335" width="79" height="39" as="geometry" />
        </mxCell>
        <mxCell id="2-FnbDXYWDibML0f8TJd-433" value="&lt;b&gt;Footer&lt;/b&gt;" style="rounded=0;whiteSpace=wrap;html=1;strokeColor=#d6b656;fillColor=#fff2cc;" vertex="1" parent="1">
          <mxGeometry x="1278" y="276" width="79" height="39" as="geometry" />
        </mxCell>
        <mxCell id="2-FnbDXYWDibML0f8TJd-434" value="Product" style="rounded=0;whiteSpace=wrap;html=1;strokeColor=#d6b656;fillColor=#fff2cc;" vertex="1" parent="1">
          <mxGeometry x="1002" y="659" width="79" height="39" as="geometry" />
        </mxCell>
        <mxCell id="2-FnbDXYWDibML0f8TJd-435" value="Cart" style="rounded=0;whiteSpace=wrap;html=1;strokeColor=#d6b656;fillColor=#fff2cc;" vertex="1" parent="1">
          <mxGeometry x="680" y="629" width="96" height="35" as="geometry" />
        </mxCell>
        <mxCell id="2-FnbDXYWDibML0f8TJd-437" value="" style="endArrow=none;html=1;rounded=0;fontSize=14;strokeWidth=1;" edge="1" parent="1">
          <mxGeometry width="50" height="50" relative="1" as="geometry">
            <mxPoint x="610.5" y="64" as="sourcePoint" />
            <mxPoint x="610.5" y="37" as="targetPoint" />
          </mxGeometry>
        </mxCell>
        <mxCell id="2-FnbDXYWDibML0f8TJd-438" value="" style="endArrow=classic;html=1;rounded=0;" edge="1" parent="1">
          <mxGeometry width="50" height="50" relative="1" as="geometry">
            <mxPoint x="1113" y="70" as="sourcePoint" />
            <mxPoint x="1113" y="127" as="targetPoint" />
          </mxGeometry>
        </mxCell>
      </root>
    </mxGraphModel>
  </diagram>
</mxfile>
